<?xml version="1.0" encoding="utf-8"?><svg version="1.1" id="Layer_1" xmlns="http://www.w3.org/2000/svg" xmlns:xlink="http://www.w3.org/1999/xlink" x="0px" y="0px" viewBox="0 0 55.32 38.52" style="enable-background:new 0 0 55.32 38.52" xml:space="preserve"><style type="text/css">.st0{fill:#FFFFFF;} .st1{fill:#D52B1E;} .st2{fill:#0039A6;} .st3{fill:none;stroke:#CCCCCC;stroke-width:0.1199;stroke-miterlimit:2.6131;}</style><g><path class="st0" d="M3.09,0.06h49.13c1.67,0,3.03,1.36,3.03,3.03v16.17H0.06V3.09C0.06,1.42,1.42,0.06,3.09,0.06L3.09,0.06z"/><path class="st1" d="M0.06,19.26h55.2v16.17c0,1.67-1.36,3.03-3.03,3.03H3.09c-1.67,0-3.03-1.37-3.03-3.03V19.26L0.06,19.26z"/><polygon class="st2" points="0.06,12.86 55.26,12.86 55.26,25.66 0.06,25.66 0.06,12.86"/><path class="st3" d="M3.09,0.06h49.13c1.67,0,3.03,1.36,3.03,3.03v32.33c0,1.67-1.36,3.03-3.03,3.03H3.09 c-1.67,0-3.03-1.37-3.03-3.03V3.09C0.06,1.42,1.42,0.06,3.09,0.06L3.09,0.06z"/></g></svg>