<svg width="90" height="65" viewBox="0 0 90 65" fill="none" xmlns="http://www.w3.org/2000/svg">
<path d="M0 30.3417C5.67815 30.3417 6.47577 27.1609 6.47577 24.3053C6.47577 22.0213 6.1567 19.7366 5.83781 17.4585C5.51844 15.1744 5.1964 12.9694 5.1964 10.6848C5.1964 3.18081 9.99558 0 16.7937 0H18.4737V4.48965H17.0344C12.3136 4.48965 10.7149 7.099 10.7149 11.5018C10.7149 13.3744 10.9558 15.3338 11.2749 17.2926C11.5941 19.3316 11.835 21.2904 11.835 23.4883C11.9164 28.7082 9.67621 31.3181 6.07536 32.3011V32.4605C9.67621 33.3566 11.9164 36.1325 11.835 41.3523C11.835 43.5567 11.5941 45.5952 11.2749 47.5481C10.9558 49.5865 10.7149 51.4662 10.7149 53.425C10.7149 57.9872 12.5543 60.5175 17.0344 60.5175H18.4737V65H16.7937C10.155 65 5.1964 62.0648 5.1964 53.83C5.1964 51.6256 5.51844 49.3409 5.83781 47.1431C6.1567 44.9381 6.47577 42.7403 6.47577 40.5353C6.47577 38.005 5.67815 34.4989 0 34.4989V30.3417Z" fill="#0D6EFD"/>
<path d="M89.6316 34.6583C83.9534 34.6583 83.1558 37.8391 83.1558 40.6947C83.1558 42.9787 83.4747 45.2634 83.7937 47.5415C84.1126 49.8256 84.4357 52.0306 84.4357 54.3152C84.4357 61.8192 79.6362 65 72.8379 65H71.158V60.5109H72.597C77.3178 60.5109 78.9167 57.901 78.9167 53.4982C78.9167 51.6256 78.6758 49.6662 78.3569 47.7074C78.0373 45.6683 77.7965 43.7096 77.7965 41.5117C77.7155 36.2918 79.9551 33.6819 83.5564 32.6995V32.5395C79.9551 31.6434 77.7155 28.8676 77.7965 23.6477C77.7965 21.4433 78.0373 19.4048 78.3569 17.4519C78.6758 15.4129 78.9167 13.5338 78.9167 11.575C78.9167 7.01218 77.077 4.48252 72.597 4.48252H71.158V0H72.8379C79.4764 0 84.4357 2.93522 84.4357 11.17C84.4357 13.3744 84.1126 15.6591 83.7937 17.8569C83.4747 20.0619 83.1558 22.2597 83.1558 24.4647C83.1558 26.995 83.9534 30.5011 89.6316 30.5011V34.6583Z" fill="#0D6EFD"/>
<path d="M31.4737 32.8422C31.4737 35.1091 29.6359 36.9474 27.3686 36.9474C25.1012 36.9474 23.2632 35.1091 23.2632 32.8422C23.2632 30.5752 25.1012 28.7369 27.3686 28.7369C29.6359 28.7369 31.4737 30.5752 31.4737 32.8422Z" fill="#0D6EFD"/>
<path d="M49.2631 32.8422C49.2631 35.1091 47.4253 36.9474 45.158 36.9474C42.8907 36.9474 41.0526 35.1091 41.0526 32.8422C41.0526 30.5752 42.8907 28.7369 45.158 28.7369C47.4253 28.7369 49.2631 30.5752 49.2631 32.8422Z" fill="#0D6EFD"/>
<path d="M67.0527 32.8422C67.0527 35.1091 65.2149 36.9474 62.9474 36.9474C60.6805 36.9474 58.8422 35.1091 58.8422 32.8422C58.8422 30.5752 60.6805 28.7369 62.9474 28.7369C65.2149 28.7369 67.0527 30.5752 67.0527 32.8422Z" fill="#0D6EFD"/>
</svg>
