<svg width="90" height="65" viewBox="0 0 90 65" fill="none" xmlns="http://www.w3.org/2000/svg">
<path d="M61.8447 47.0634C60.2192 47.0634 58.8966 45.7488 58.8966 44.1327C58.8966 42.5165 60.2192 41.202 61.8447 41.202C63.4707 41.202 64.7933 42.5165 64.7933 44.1327C64.7933 45.7488 63.4707 47.0634 61.8447 47.0634ZM44.8627 35.5664C43.237 35.5664 41.9145 34.2518 41.9145 32.6357C41.9145 31.02 43.237 29.705 44.8627 29.705C46.4887 29.705 47.8112 31.02 47.8112 32.6357C47.8112 34.2518 46.4887 35.5664 44.8627 35.5664ZM27.7365 47.0634C26.1108 47.0634 24.7881 45.7488 24.7881 44.1327C24.7881 42.5165 26.1108 41.202 27.7365 41.202C29.3625 41.202 30.685 42.5165 30.685 44.1327C30.685 45.7488 29.3625 47.0634 27.7365 47.0634ZM27.7365 23.7981C26.1108 23.7981 24.7881 22.4836 24.7881 20.8674C24.7881 19.2512 26.1108 17.9367 27.7365 17.9367C29.3625 17.9367 30.685 19.2512 30.685 20.8674C30.685 22.4836 29.3625 23.7981 27.7365 23.7981ZM61.895 17.9367C63.521 17.9367 64.8436 19.2512 64.8436 20.8674C64.8436 22.4836 63.521 23.7981 61.895 23.7981C60.269 23.7981 58.9464 22.4836 58.9464 20.8674C58.9464 19.2512 60.269 17.9367 61.895 17.9367ZM61.8447 39.6863C60.8011 39.6863 59.8415 40.046 59.0796 40.6442L48.9743 34.3847C49.2064 33.8477 49.3361 33.2566 49.3361 32.6357C49.3361 31.9582 49.1784 31.3186 48.9046 30.7432L59.5081 24.6211C60.1998 25.0571 61.0167 25.3137 61.895 25.3137C64.3617 25.3137 66.3684 23.3187 66.3684 20.8674C66.3684 18.4156 64.3617 16.4211 61.895 16.4211C59.4283 16.4211 57.4215 18.4156 57.4215 20.8674C57.4215 21.8743 57.7641 22.8003 58.3334 23.5465L48.0276 29.4968C47.2174 28.69 46.0977 28.1894 44.8627 28.1894C43.6351 28.1894 42.5216 28.6845 41.7125 29.4827L31.5463 23.1858C31.9643 22.5093 32.2099 21.7172 32.2099 20.8674C32.2099 18.4156 30.2031 16.4211 27.7365 16.4211C25.2702 16.4211 23.2632 18.4156 23.2632 20.8674C23.2632 23.3187 25.2702 25.3137 27.7365 25.3137C28.7906 25.3137 29.7588 24.9469 30.5242 24.3387L40.831 30.7225C40.5508 31.3029 40.3896 31.9501 40.3896 32.6357C40.3896 33.3425 40.5605 34.0088 40.8574 34.603L30.4545 40.6094C29.7 40.0329 28.7595 39.6863 27.7365 39.6863C25.2702 39.6863 23.2632 41.6809 23.2632 44.1327C23.2632 46.5839 25.2702 48.579 27.7365 48.579C30.2031 48.579 32.2099 46.5839 32.2099 44.1327C32.2099 43.2566 31.9504 42.4422 31.5088 41.7531L41.762 35.8331C42.5671 36.6046 43.6591 37.082 44.8627 37.082C46.1571 37.082 47.3212 36.5293 48.1386 35.6533L58.0488 41.7915C57.6223 42.4721 57.3717 43.2733 57.3717 44.1327C57.3717 46.5839 59.3784 48.579 61.8447 48.579C64.3114 48.579 66.3181 46.5839 66.3181 44.1327C66.3181 41.6809 64.3114 39.6863 61.8447 39.6863Z" fill="#0D6EFD"/>
<path d="M0 30.3417C5.67815 30.3417 6.47577 27.1609 6.47577 24.3053C6.47577 22.0213 6.1567 19.7366 5.83781 17.4585C5.51844 15.1744 5.1964 12.9694 5.1964 10.6848C5.1964 3.18081 9.99558 0 16.7937 0H18.4737V4.48965H17.0344C12.3136 4.48965 10.7149 7.099 10.7149 11.5018C10.7149 13.3744 10.9558 15.3338 11.2749 17.2926C11.5941 19.3316 11.835 21.2904 11.835 23.4883C11.9164 28.7082 9.67621 31.3181 6.07536 32.3011V32.4605C9.67621 33.3566 11.9164 36.1325 11.835 41.3523C11.835 43.5567 11.5941 45.5952 11.2749 47.5481C10.9558 49.5865 10.7149 51.4662 10.7149 53.425C10.7149 57.9872 12.5543 60.5175 17.0344 60.5175H18.4737V65H16.7937C10.155 65 5.1964 62.0648 5.1964 53.83C5.1964 51.6256 5.51844 49.3409 5.83781 47.1431C6.1567 44.9381 6.47577 42.7403 6.47577 40.5353C6.47577 38.005 5.67815 34.4989 0 34.4989V30.3417Z" fill="#0D6EFD"/>
<path d="M89.6316 34.6583C83.9534 34.6583 83.1558 37.8391 83.1558 40.6947C83.1558 42.9787 83.4747 45.2634 83.7937 47.5415C84.1126 49.8256 84.4357 52.0306 84.4357 54.3152C84.4357 61.8192 79.6362 65 72.8379 65H71.158V60.5109H72.597C77.3178 60.5109 78.9167 57.901 78.9167 53.4982C78.9167 51.6256 78.6758 49.6662 78.3569 47.7074C78.0373 45.6683 77.7965 43.7096 77.7965 41.5117C77.7155 36.2918 79.9551 33.6819 83.5564 32.6995V32.5395C79.9551 31.6434 77.7155 28.8676 77.7965 23.6477C77.7965 21.4433 78.0373 19.4048 78.3569 17.4519C78.6758 15.4129 78.9167 13.5338 78.9167 11.575C78.9167 7.01218 77.077 4.48252 72.597 4.48252H71.158V0H72.8379C79.4764 0 84.4357 2.93522 84.4357 11.17C84.4357 13.3744 84.1126 15.6591 83.7937 17.8569C83.4747 20.0619 83.1558 22.2597 83.1558 24.4647C83.1558 26.995 83.9534 30.5011 89.6316 30.5011V34.6583Z" fill="#0D6EFD"/>
</svg>
