<svg width="78" height="44" viewBox="0 0 78 44" fill="none" xmlns="http://www.w3.org/2000/svg">
<path d="M35.1351 17.4385V40.6116C35.1351 42.0504 33.9616 43.2163 32.5121 43.2163C31.9317 43.2163 31.3837 43.0272 30.9427 42.6987C30.4988 42.3712 30.16 41.9042 29.995 41.3535L27.2011 32.0197C24.4346 33.826 21.1251 34.8758 17.5681 34.8758C7.86531 34.8758 0 27.0686 0 17.4385C0 7.80735 7.86531 9.53674e-05 17.5681 9.53674e-05C27.2708 9.53674e-05 35.1351 7.80735 35.1351 17.4385Z" fill="#0D6EFD"/>
<path d="M78.0001 17.4386V40.6117C78.0001 42.0509 76.825 43.2163 75.3762 43.2163C74.7964 43.2163 74.2481 43.0271 73.8074 42.6987C73.3634 42.3715 73.0247 41.9051 72.8588 41.353L70.0666 32.0199C67.2991 33.8264 63.99 34.876 60.432 34.876C50.7301 34.876 42.865 27.0689 42.865 17.4386C42.865 7.8072 50.7301 9.53674e-05 60.432 9.53674e-05C70.1339 9.53674e-05 78.0001 7.8072 78.0001 17.4386Z" fill="#0D6EFD"/>
</svg>
