<?xml version="1.0" encoding="UTF-8"?>
<!-- Generator: visioncortex VTracer -->
<svg id="svg" version="1.1" xmlns="http://www.w3.org/2000/svg" style="display: block;" viewBox="0 0 120 120"><path d="M0 0 C3.53070859 2.81791412 6.80136441 5.81314576 10 9 C10.77214844 9.66644531 11.54429688 10.33289063 12.33984375 11.01953125 C14 13 14 13 13.95703125 15.01171875 C12.82248604 17.36879432 11.52159026 18.94699064 9.6875 20.8125 C9.09324219 21.43769531 8.49898438 22.06289063 7.88671875 22.70703125 C6 24 6 24 3.96484375 23.9296875 C1.52103872 22.77337419 0.50455508 21.46203873 -1.125 19.3125 C-8.28517293 10.77537074 -19.02345436 6.16771762 -30 5 C-42.42780561 4.12787329 -54.6679189 7.94633304 -64.28515625 15.88671875 C-74.03297962 25.16081613 -79.06276026 36.46064526 -79.5 50 C-79.16205582 60.12706051 -76.40777662 68.94442585 -70.3671875 77.09765625 C-69 79 -69 79 -68.0703125 81.12109375 C-66.71099406 83.50734254 -65.48699647 83.91335986 -63 85 C-61.59428059 85.96492021 -60.19891325 86.94504024 -58.8125 87.9375 C-49.55749786 94.1888194 -39.01552964 95.92012071 -28 95 C-15.20281556 92.36528556 -6.1018464 87.18568194 1.89453125 76.87890625 C4 75 4 75 6.55078125 75.0078125 C9.24213933 76.09809153 10.51296615 77.10547003 12.375 79.3125 C12.89835937 79.90675781 13.42171875 80.50101562 13.9609375 81.11328125 C15 83 15 83 14.8359375 85 C10.78200752 94.69912221 -0.37598733 101.42360246 -9.58984375 105.64453125 C-23.90592807 111.23247417 -40.53847698 112.74716578 -55.1953125 107.24609375 C-56.58363281 106.62927734 -56.58363281 106.62927734 -58 106 C-58.92554688 105.59910156 -59.85109375 105.19820313 -60.8046875 104.78515625 C-75.98278857 97.36809553 -85.89268712 84.54005175 -92 69.05078125 C-97.11163605 53.45629783 -95.58808358 37.39524751 -88.4375 22.75 C-80.51849833 7.4750197 -67.67448599 -2.92806013 -51.40234375 -8.34375 C-33.64749024 -13.19385633 -15.30750316 -9.98148829 0 0 Z " transform="translate(99,10)" style="fill: #4DA7B7;"/><path d="M0 0 C6.09300852 3.34875587 9.57769094 8.54557282 11.75 15.0625 C12.52766019 22.12518431 11.67612285 28.05851682 7.75 34.0625 C3.86417257 38.36269292 -0.44080672 41.70224792 -6.38148499 42.26408386 C-9.02297791 42.36037031 -11.65752327 42.3921349 -14.30078125 42.3984375 C-15.27355515 42.4050943 -16.24632904 42.4117511 -17.24858093 42.41860962 C-19.3036409 42.42871791 -21.35873356 42.4334272 -23.41381836 42.43310547 C-26.54140995 42.43747057 -29.66758048 42.4737877 -32.79492188 42.51171875 C-34.7968702 42.51758907 -36.7988252 42.52155702 -38.80078125 42.5234375 C-39.72812576 42.53780853 -40.65547028 42.55217957 -41.61091614 42.56698608 C-48.62120814 42.51820009 -54.23081997 41.05876405 -59.30859375 36.01953125 C-63.23155589 29.9183805 -64.9813359 24.99901731 -63.90625 17.7421875 C-62.0788592 10.64902584 -57.44234151 6.60511686 -51.32421875 2.89453125 C-46.52658001 0.97005469 -40.63147961 1.18047051 -35.82421875 2.9609375 C-33.93426183 3.93528458 -32.08789186 4.9931811 -30.25 6.0625 C-27.91175968 6.27991397 -27.91175968 6.27991397 -25.5625 3.75 C-17.88036111 -2.76593468 -9.18224666 -3.99048013 0 0 Z M-20.25 12.0625 C-22.28120707 15.10931061 -22.49659875 15.66368324 -22.4453125 19.07421875 C-22.43886719 19.83154297 -22.43242188 20.58886719 -22.42578125 21.36914062 C-22.40902344 22.15482422 -22.39226562 22.94050781 -22.375 23.75 C-22.36597656 24.54728516 -22.35695312 25.34457031 -22.34765625 26.16601562 C-22.32411585 28.131639 -22.28824547 30.09710775 -22.25 32.0625 C-19.45826945 32.08940104 -16.66679652 32.10929053 -13.875 32.125 C-12.68390625 32.13756836 -12.68390625 32.13756836 -11.46875 32.15039062 C-7.22607778 32.29290151 -7.22607778 32.29290151 -3.25 31.0625 C-3.25 30.4025 -3.25 29.7425 -3.25 29.0625 C-4.24 28.7325 -5.23 28.4025 -6.25 28.0625 C-7.42755913 25.11860218 -7.28348696 24.16296087 -6.25 21.0625 C-0.5 19.9375 -0.5 19.9375 1.75 21.0625 C1.49385063 16.70796078 1.17722153 14.56640232 -1.6875 11.1875 C-5.27936931 8.20887667 -7.44064473 7.72207976 -12.1484375 7.7734375 C-15.54975682 8.24127696 -17.66119355 9.90516129 -20.25 12.0625 Z M-53.25 17.0625 C-54.53998174 21.23597032 -54.54348391 23.28476764 -53 27.375 C-51.36682876 30.26958249 -51.36682876 30.26958249 -48.25 32.0625 C-45.48344676 32.20495897 -42.82346694 32.25019445 -40.0625 32.1875 C-38.93811523 32.17396484 -38.93811523 32.17396484 -37.79101562 32.16015625 C-35.94387346 32.13662578 -34.09689588 32.10075561 -32.25 32.0625 C-32.58 30.7425 -32.91 29.4225 -33.25 28.0625 C-33.848125 28.26875 -34.44625 28.475 -35.0625 28.6875 C-37.25 29.0625 -37.25 29.0625 -40.25 27.0625 C-40.5625 24.5625 -40.5625 24.5625 -40.25 22.0625 C-38.25 20.0625 -38.25 20.0625 -35.625 19.9375 C-34.84125 19.97875 -34.0575 20.02 -33.25 20.0625 C-34.12730509 17.35747597 -34.96668971 15.37849994 -36.875 13.25 C-43.61083018 9.88208491 -48.63233328 11.76907717 -53.25 17.0625 Z " transform="translate(90.25,30.9375)" style="fill: #4DA8B7;"/></svg>