<svg width="180" height="78" viewBox="0 0 180 78" fill="none" xmlns="http://www.w3.org/2000/svg">
<path d="M69.9998 22.42H1.12549V35.5099C1.12549 40.3681 2.88111 44.8213 5.85216 48.195H5.78463L32.3215 75.1845C34.1446 77.0063 37.0482 77.0063 38.8713 75.1845L65.6108 47.9926H65.4757C68.3117 44.6189 69.9998 40.3006 69.9998 35.5099V22.42Z" stroke="white" stroke-width="1.5" stroke-miterlimit="10" stroke-linecap="round" stroke-linejoin="round"/>
<path d="M65.4083 32.676C68.9196 28.4926 70.8103 22.7574 69.5948 16.5498C68.1093 8.72284 61.7621 2.38031 53.9968 1.23325C47.5821 0.288621 41.64 2.58273 37.6561 6.7661C36.4406 8.0481 34.55 8.0481 33.3345 6.7661C29.2831 2.58273 23.341 0.221147 16.9262 1.23325C9.16098 2.44778 2.74623 8.79031 1.32822 16.6847C0.180319 22.9598 2.13851 28.6951 5.71727 32.8784L32.1866 59.8679C34.0098 61.6897 36.9133 61.6897 38.7364 59.8679L65.4083 32.676Z" stroke="white" stroke-width="1.5" stroke-miterlimit="10" stroke-linecap="round" stroke-linejoin="round"/>
<path d="M23.5457 20.8784L18.6954 25.6645L18.1544 26.1984L18.6954 26.7322L23.5457 31.5184L23.287 31.7639L17.7173 26.1984L23.287 20.6328L23.5457 20.8784Z" fill="black" stroke="white" stroke-width="1.5"/>
<path d="M37.6924 15.6129H38.2331L33.2315 34.355H32.6908L37.6924 15.6129Z" fill="black" stroke="white" stroke-width="1.5"/>
<path d="M47.3777 31.5184L52.228 26.7322L52.769 26.1984L52.228 25.6645L47.3777 20.8784L47.6364 20.6328L53.2061 26.1984L47.6364 31.7639L47.3777 31.5184Z" fill="black" stroke="white" stroke-width="1.5"/>
<path d="M138.357 12.9866C139.477 11.6644 140.036 9.88449 139.68 7.90114C139.222 5.40924 137.186 3.42589 134.743 3.06991C132.708 2.76478 130.825 3.47675 129.552 4.84983C129.196 5.25667 128.585 5.25667 128.178 4.84983C126.906 3.5276 125.023 2.76478 122.987 3.06991C120.595 3.42589 118.56 5.4601 118.102 7.952C117.745 9.93534 118.356 11.7661 119.476 13.0884L127.822 21.632C128.382 22.1914 129.298 22.1914 129.909 21.632L138.357 12.9866Z" stroke="white" stroke-width="1.5" stroke-miterlimit="10" stroke-linecap="round" stroke-linejoin="round"/>
<path d="M177.524 68.1641C178.338 67.1978 178.745 65.9264 178.491 64.5025C178.135 62.7226 176.71 61.2986 174.979 61.0444C173.503 60.8409 172.18 61.3495 171.264 62.3157C171.01 62.6209 170.552 62.6209 170.297 62.3157C169.381 61.3495 168.058 60.8409 166.582 61.0444C164.801 61.2986 163.376 62.7734 163.07 64.5534C162.816 65.9773 163.274 67.2995 164.088 68.2149L170.094 74.3175C170.501 74.7244 171.162 74.7244 171.569 74.3175L177.524 68.1641Z" stroke="white" stroke-width="1.5" stroke-miterlimit="10" stroke-linecap="round" stroke-linejoin="round"/>
</svg>
