<?xml version="1.0" encoding="UTF-8"?> <svg xmlns="http://www.w3.org/2000/svg" width="84" height="40" viewBox="0 0 84 40" fill="none" preserveAspectRatio="xMidYMid"> <path fill-rule="evenodd" clip-rule="evenodd" d="M44.6744 13.03V4.2272L47.3468 6.65249V25.6269H44.6744V24.3656C43.3912 25.4201 41.7938 25.998 40.1403 25.998C36.1667 25.998 32.9338 22.723 32.9338 18.6978C32.9338 14.6726 36.1667 11.3976 40.1403 11.3976C41.7938 11.3976 43.3912 11.9755 44.6744 13.03ZM35.6062 18.6998C35.6062 21.2326 37.64 23.2929 40.1403 23.2929C42.6406 23.2929 44.6744 21.2326 44.6744 18.6998C44.6744 16.1671 42.6406 14.1068 40.1403 14.1068C37.64 14.1068 35.6062 16.1671 35.6062 18.6998ZM9.27839 23.2178C11.044 23.2178 12.7035 22.5203 13.9506 21.2569L14.0487 21.1596L15.9384 23.0739L15.8423 23.1712C14.0887 24.9476 11.7586 25.925 9.2804 25.925C6.80215 25.925 4.47005 24.9476 2.71846 23.1712C0.964874 21.3948 0 19.0344 0 16.524C0 14.0115 0.964874 11.6511 2.71846 9.87674C4.48406 8.0882 6.79415 7.17364 9.11425 7.13309H9.44455C11.7646 7.17364 14.0727 8.08617 15.8403 9.87674L15.9364 9.97408L14.0467 11.8884L13.9506 11.791C12.7035 10.5297 11.046 9.83416 9.27839 9.83416C7.51079 9.83416 5.85129 10.5297 4.60617 11.791C3.35704 13.0564 2.67042 14.7374 2.67042 16.524C2.67042 18.3125 3.35904 19.9936 4.60617 21.2569C5.8553 22.5223 7.5148 23.2178 9.27839 23.2178ZM16.8653 18.6998C16.8653 14.6746 20.0982 11.3996 24.0718 11.3996C28.0454 11.3996 31.2783 14.6746 31.2783 18.6998C31.2783 22.7251 28.0454 26 24.0718 26C20.0982 26 16.8653 22.7251 16.8653 18.6998ZM19.5377 18.6998C19.5377 21.2326 21.5715 23.2929 24.0718 23.2929C26.572 23.2929 28.6059 21.2326 28.6059 18.6998C28.6059 16.1671 26.572 14.1068 24.0718 14.1068C21.5715 14.1068 19.5377 16.1671 19.5377 18.6998ZM66.1679 15.4512L66.264 15.5486L68.1537 13.6343L68.0576 13.537C66.6984 12.1601 64.8887 11.4017 62.961 11.4017C61.0332 11.4017 59.2236 12.1601 57.8644 13.537C56.5051 14.9139 55.7565 16.747 55.7565 18.6998C55.7565 20.6526 56.5051 22.4858 57.8644 23.8627C59.2236 25.2396 61.0332 25.998 62.961 25.998C64.8887 25.998 66.6984 25.2396 68.0576 23.8627L68.1537 23.7653L66.264 21.8511L66.1679 21.9484C64.4003 23.739 61.5237 23.739 59.7561 21.9484C57.9885 20.1578 57.9885 17.2438 59.7561 15.4533C61.5237 13.6607 64.4003 13.6607 66.1679 15.4512ZM50.4637 25.6289H53.1361V11.9107L50.4637 9.48335V25.6289ZM81.3276 13.032V11.9106H84V25.6289H81.3276V24.3676C80.0444 25.4221 78.447 26 76.7935 26C72.8199 26 69.587 22.7251 69.587 18.6998C69.587 14.6746 72.8199 11.3996 76.7935 11.3996C78.447 11.3996 80.0444 11.9776 81.3276 13.032ZM76.7935 23.2929C79.2938 23.2929 81.3276 21.2326 81.3276 18.6998C81.3276 16.1671 79.2938 14.1068 76.7935 14.1068C74.2932 14.1068 72.2594 16.1671 72.2594 18.6998C72.2594 21.2326 74.2932 23.2929 76.7935 23.2929Z" fill="black"></path> <path d="M24.0718 6.6038V10.26L30.5336 4.14202V0.48584L24.0718 6.6038Z" fill="#136EF6"></path> </svg> 