<svg version="1.2" xmlns="http://www.w3.org/2000/svg" viewBox="0 0 144 144" width="144" height="144">
	<title>light-transparent-icon-svg</title>
	<style>
		.s0 { fill: #ffffff } 
	</style>
	<g id="Layer">
		<path id="Layer" class="s0" d="m71.9 97.2c0-0.2 0-0.2 0 0z"/>
		<path id="Layer" class="s0" d="m72.9 137.7c0.3 0.7 1.1 2.9 1.6 4.8l-18.1 0.7c-11.5 0.7-9.4-2.5-16.7-3.1l-7.9 0.6c0.5-1.4 0.9-7.2 1.1-7.7 0.9-2.9 2-5.3 3.8-7.6 1.7-2.2 1.6-5 2.6-7.6 1.1-2.8 2.6-5 4-7.6 2.5-4.7 4.1-10.7 9.4-11.9 0.6-0.1 3.8 2.6 5.3 4.2 1.6 1.8 3.4 3.9 4.5 6.4 2.1 4.8 3.9 11.9 4.6 15.8 0.4 2.2 0.7 2.3 2 4.1 0.6 0.8 1.8 3.3 2.2 4.3 0.4 1.1 1.1 3.4 1.6 4.6z"/>
		<path id="Layer" class="s0" d=""/>
		<path id="Layer" class="s0" d="m102.3 78.3c0.8-2.3 0.8-6.4 2.8-8.2 2.2-2.2 6-2 8.7-3.4 1.5-0.7 2.6-1.2 4.1-0.8 1.2 0.3 3.3 1.8 3.7-0.3-0.3-0.3-0.5-0.8-0.7-1.1 2.1-0.3 0-6-0.8-7.1-1.3-1.8-3.5-2.6-5.8-3.3-2.8-0.8-5.3-1.8-7.9-1.2-4.6 1-4.2-2-6.9-2-3.2 0-8.9 0.2-9.9 3.8-0.5 1.7-1 1.7-1.8 3-0.6 1.1 0.2 2.1-0.2 3.3-0.3 1.3-0.9 5.9-1.4 7.4-0.9 2.7-2 6.1-4 6.1-2.9 0.4-5.1 0.5-7.4-0.5-1.4-0.6-3.7-1.4-4.8-2-5.3-2.5-6.2-5.3-6.2-5.3-0.5-1.1-2-2.8-2.6-5.1-0.6-2.5-1.6-4.5-2.1-5.8-0.4-1.4-1.4-3.5-2.2-5.8-1.1-3-2.6-5.2-3.6-6.3-1.7-1.7-3.2-4.3-6.5-3.6-0.6 0.2-2.8 0.3-4.5 1.9-1.1 1.1-1.4 3.3-2.5 5.2-0.6 1.1-1.7 4.2-2.6 6.8-0.7 1.8-1 3.2-1.7 3.8-0.6 0.5-1.3 1.2-2.2 0.9q-0.8-0.4-1.6-1.2c-0.8-0.7-2.6-4.1-3.6-6.6-1-2.2-3-5.5-4.1-7.2-1.7-2.6-2.7-3.2-5.1-3.2-5.3 0-5.7 3.3-8 8.2-1 2.2-1.4 5.6-3.4 8.3-1.2 1.5-4.9 7.8-7.5 8.9v-45.2c0-11.4 8.1-20.7 18.1-20.7h107.4c10 0 18.1 9.3 18.1 20.7v121.7c-12.9 3.4-20.7-4.9-35-3.3-5.7 0.6-14.5 0-20.8 1.1-3.5 0.6-6.2 1.7-8.8 2.2q-0.1 0-0.1-0.1c-2.1-5-3.5-10.7-4.2-16.2-0.2-1.4 0.1-2.8-0.2-4.1-0.3-1.2-1.1-1.3-1.6-2.2-1.2-2.5-2.5-5.7-2.7-8.7-0.1-2.7-0.9-5.2-1.1-7.9 0-1.3 0.1-2.6 0.1-3.9 0-0.6-0.1-1.2-0.2-1.9 0-0.1-0.1-0.8-0.1-1.1l0.2-0.8c-0.1-0.3 2.6-0.2 3.4-0.2 1.3 0 2.6 0.1 3.9 0.1 2.7 0.2 5.2 0.2 7.9-0.3 5.9-1.1 8.6-3.8 10-5 5.5-4.5 7.9-11.8 8-11.8z"/>
		<path id="Layer" class="s0" d="m39.7 101.2c-2.1 1.2-3.4 4.7-4.2 7.1-0.8 2.6-1.4 5.4-2.4 7.9-1.1 2.8-3.4 4-3.2 7.2 0.2 1.3 0.4 2.6 0.2 4-0.2 1.5-0.8 2.7-1.1 4.1-0.5 1.9-1.1 8.1-1.9 9.9l-0.9 0.1c-9.9 1.3-12.4 1.1-22.4-2-1.4-0.4-2.6-0.7-3.8-1v-2.3-16.2-9.4q0.2-0.9 0.5-1.6c1-2.5 3.4-4.7 4.7-7.2 0.7-1.4 1.5-2.7 1.9-4.2 0.4-1.2 0.6-3.1 1.2-4.1 0.7-1.3 1.8-1.8 3-2 1.7-0.3 3.3 2.9 5.5 4.1 1 0.6 5.5 2.4 6.8 2.7 2.2 0.6 4.7 1.2 6.9 1.7 1.2 0.2 2.4 0.4 3.6 0.6 1.1 0.1 5.3 0.2 5.6 0.6z"/>
	</g>
</svg>