<svg version="1.2" xmlns="http://www.w3.org/2000/svg" viewBox="0 0 117 117" width="117" height="117"><style>.a{fill:#fff}</style><path class="a" d="m16.3 103l1.3-5.1c0.5-1.9 1.1-3.7 1.4-5.5q0.1-0.2 0.1-0.3 0-0.2 0-0.4-0.1-0.1-0.1-0.3 0-0.2 0-0.3l-0.3-3-0.7-7.4c-0.1-0.8-0.1-1.4-0.3-2.1v-0.2c0 0 0 0.3 0 0.2q0-0.2 0.1-0.4l0.7-5.7q0.8-6 1.7-11.8-0.1-0.2 0-0.3-0.1-0.2 0-0.4-0.1-0.2-0.1-0.4 0-0.1 0-0.3l-0.4-3.3-0.7-6.6v-0.4q-0.1-0.3-0.2-0.6-0.3-0.2-0.6-0.3-0.3 0-0.6 0.2-0.3 0.1-0.5 0.4l-1.7 5c-0.1 0.5-0.4 1-0.4 1.5 0 0.7 0.1 1.4 0.2 2.1 0.1 1.8 0.3 3.7 0.4 5.6q0 0.1 0 0.2 0 0.2-0.1 0.3 0 0.1 0 0.2 0 0.2 0 0.3l-0.3 2.9-0.7 5.5 1.8-0.5-5.1-10.8-0.7-1.5 0.1 0.5 1.5-12.6 0.2-1.7-0.1 0.4 4.5-6.8 5.5-8.2q0-0.1 0.1-0.1 0 0 0 0 0 0 0-0.1 0 0 0 0c0-0.1-0.2 0.2 0 0.1q0.4-0.5 0.8-1.1l3.5-4.1c1.9-2.2 3.9-4.4 5.7-6.7 0.4-0.5 0.3-1.1 0.4-1.7v-2.6l0.4-5.3 0.1-0.3-0.8 0.9 9.8-3.1 1.4-0.5-0.7-0.1 11 5 1.6 0.7-0.3-0.3 5.6 9.2q0.1 0.2 0.1 0.4 0.1 0.1 0.2 0.2 0.1 0.2 0.2 0.3 0.1 0.1 0.2 0.3c0.3 0.3 0.7 0.5 1.1 0.9l4.9 4.3 3.8 3.3-0.3-0.4 2.7 11.4 0.3 1.6q0.1 0.2 0.2 0.2 0.1 0.2 0.1 0.3 0.2 0.1 0.4 0.1 0 0.1 0.2 0.1l2.9 0.3q0.2 0 0.4-0.1 0.1-0.1 0.3-0.2 0.1-0.1 0.2-0.3 0-0.2 0-0.3v-8.1q0-0.2 0-0.5 0-0.3 0-0.5-0.1-0.3-0.2-0.5-0.1-0.2-0.2-0.5l-1.3-4.9-0.9-3.5v0.4c0.8-2.1 1.7-4.3 2.4-6.5l0.6-2-0.4 0.6 7.2-4.4-0.7 0.1 3.9 0.6-0.4-0.2 2.1 2.5q0 0.2 0.1 0.2 0.1 0.2 0.3 0.3 0 0.2 0.1 0.2 0.1 0.1 0.3 0.3 0.1 0.1 0.1 0.1 0.1 0 0.2 0 0.2 0.1 0.2 0.1 0.1 0 0.3 0l7.4 1.2 2.4 0.4-0.6-0.4 3.3 5.6 0.1-1.1-2.2 2.2 0.4-0.2-9.3 1.9-1.3 0.3q-0.2 0-0.4 0.2-0.1 0.1-0.2 0.3-0.1 0.2 0 0.4 0 0.2 0.1 0.4l4.4 8.6 0.7 1.2-0.2-0.5-1.2 13.4-0.2 1.9 0.3-0.7-8.1 8.6-1.2 1.3 0.4-0.3-11.4 1.6-1.7 0.2c-0.4 0.1-0.6 0.5-0.7 0.9l-1 10.2c-0.2 1.4-0.5 2.7-0.5 4.1 0 0.1 0.1-0.3 0-0.3q0 0.1 0 0.1 0 0 0 0.1 0 0 0 0.1l-0.4 1-1 3.2c-0.3 0.7-0.5 1.5-0.7 2.3q0 0.2 0 0.3 0 0.2 0 0.3-0.1 0.2-0.1 0.4 0 0.2 0.1 0.4l-0.2 5.9q0 0.2 0 0.2 0.1 0.2 0.1 0.3 0 0.2 0 0.2 0.1 0.2 0.1 0.3l0.8 2.1 2.2 6.2 0.8 2.2q0.1 0.2 0.1 0.4 0 0.1 0.2 0.3 0.1 0.1 0.2 0.2 0.1 0.1 0.2 0.3c1.6 1 3.2 2.1 4.8 3.1l0.4 0.4-0.2-1.5-2.2 2.4 0.6-0.3-8.2-0.9 0.9 0.8-1.5-5.2-0.9-2.7q0 0 0-0.1 0 0 0-0.1 0 0 0-0.1-0.1 0-0.1 0c-0.1-0.1 0 0.2 0 0.2q0-0.1 0-0.2 0 0 0 0 0-0.1 0-0.2 0 0 0-0.1l-1-12.3q0-0.1 0-0.4 0-0.1-0.1-0.4 0-0.1-0.1-0.3 0-0.2-0.1-0.4l-1.4-2.8 0.1 0.4 0.2-4.1 0.2-2.4q0-0.1 0.1-0.2 0-0.2 0-0.2 0-0.2-0.1-0.3 0-0.1 0-0.2c-0.7-3-1.7-6-2.6-9.1l-0.9-3.3q-0.1-0.1-0.1-0.2-0.1-0.1-0.1-0.2-0.1-0.1-0.3-0.2-0.1 0-0.2 0l-3.9-0.6c-0.4-0.1-1.2 0.2-1.1 0.9l0.5 4.4 0.4 2.9c0.1 0.5 0 1.2 0.2 1.6q0.2 0.4 0.4 0.6 0.2 0.2 0.4 0.5 0.1 0.2 0.3 0.5 0.2 0.2 0.4 0.5l-0.1-0.4-0.5 6.9 0.3-0.7-9.4 9.1-1.3 1.3q0 0.1-0.1 0.2-0.1 0.1-0.1 0.2-0.1 0.1-0.1 0.3 0 0 0.1 0.1l1.4 3.7c0.2 0.6 0.4 1.4 1 1.7 0.5 0.1 1.1 0.3 1.6 0.5l2 0.7-0.6-0.6 0.9 3.4 0.9-1.1-8.7-0.2-1.3-0.1 0.9 0.6-1-3.4c-0.3-0.8-1.2-0.8-1.7-0.1l-3 3.9 0.9-0.4-3.6-0.8 0.7 0.8 0.2-8.6-0.4 0.8 3.6-2q0.2-0.1 0.3-0.2 0-0.2 0.1-0.4 0.1-0.1 0-0.4 0-0.1-0.1-0.3l-6.2-10.3-0.9-1.5 0.1 0.5 0.2-9.7 0.1-2.2q0-0.2 0-0.4 0 0 0-0.2 0-0.2-0.1-0.2 0-0.2-0.1-0.4-0.9-2.1-1.7-4.2l-2-4.5c-0.3-0.9-1.5-0.5-1.6 0.2l-2.9 9.8c-0.5 1.4-1 2.8-1.3 4.3-0.1 0.3 0.1-0.3 0 0-0.2 0.2-0.4 0.5-0.5 0.8l-1.6 3c-0.2 0.5-0.5 1-0.6 1.6q-0.1 0.6-0.2 1.4l-0.7 6.2-0.7 5.6q0 0.2 0 0.4 0 0 0 0.2 0 0.2 0 0.3 0 0.1 0 0.3c0.1 0.4 0.2 0.8 0.3 1.1l2.6 11.1 0.1 0.4 0.4-1.1-2.7 1.5 1 0.1-1-1.2q-0.2-0.1-0.4-0.2-0.3-0.1-0.5 0-0.3 0.1-0.4 0.2-0.2 0.2-0.3 0.4l-0.5 1.7 1.3-0.5-5.1-2.6c-1-0.6-2 1-0.9 1.5l5.1 2.6q0.1 0.2 0.4 0.2 0.2 0 0.4-0.1 0.1-0.1 0.3-0.3 0.2-0.1 0.3-0.3l0.5-1.7-1.5 0.4 1.1 1.2q0.1 0.1 0.3 0.2 0 0.1 0.2 0.1 0.2 0 0.3 0 0.2 0 0.3-0.1l2.7-1.5q0.2 0 0.3-0.2 0.1-0.1 0.1-0.2 0-0.1 0-0.3 0.1-0.2 0-0.3l-2.6-11.5-0.3-0.9q0 0 0 0 0-0.1 0-0.1 0 0 0-0.1c-0.1-0.1-0.1 0.3 0 0.2 0.1 0 0.1-0.4 0.1-0.5l0.1-1.1 0.8-7.1 0.6-5.5-0.1 0.5 2.1-4q0.2-0.2 0.2-0.5 0.2-0.3 0.3-0.5 0.1-0.3 0.2-0.6 0.1-0.2 0.2-0.5l3-10.1 0.9-3.2-1.6 0.2 3.2 7.7 0.5 1.1-0.1-0.4-0.3 11.5c0 0.4-0.2 1 0.1 1.4 0.2 0.5 0.5 0.9 0.8 1.3l3.6 6 2.8 4.6 0.3-1.3-2.5 1.4c-0.3 0.2-0.7 0.4-1 0.6q-0.2 0.1-0.3 0.2-0.1 0.1-0.2 0.2 0 0.2-0.1 0.3 0 0.1 0 0.3c-0.1 2-0.1 4.1-0.2 6.2l-0.1 2.2q0 0.2 0.1 0.4 0 0.1 0.2 0.2 0.1 0.2 0.1 0.2 0.2 0.1 0.4 0.1l3.5 0.8q0.2 0 0.4 0 0.1 0 0.3 0 0.1 0 0.2-0.1 0.1-0.2 0.2-0.3l3.1-3.9-1.7-0.2 1 3.3q0.1 0.2 0.2 0.3 0.1 0.1 0.2 0.2 0.1 0.1 0.2 0.2 0.2 0.1 0.3 0.1l8.8 0.2 1.2 0.1q0.3 0 0.4-0.1 0.3-0.1 0.4-0.3 0.1-0.2 0.1-0.4 0.1-0.2 0-0.4l-0.5-1.9-0.4-1.2q0-0.1-0.1-0.3 0-0.1 0-0.2-0.1-0.1-0.2-0.2 0-0.1-0.2-0.2 0 0-0.1-0.1-0.1 0-0.2-0.1-0.1 0-0.2-0.1-0.1 0-0.2 0l-1.2-0.5-1.9-0.6 0.7 0.6-1.8-4.6-0.3 0.9 7.7-7.5c1-0.9 2.1-1.8 3-2.8 0.4-0.5 0.3-1.3 0.4-1.9l0.2-3.4c0-0.8 0.2-1.5 0.1-2.3 0-0.5-0.5-1-0.7-1.4l-0.8-1.2 0.1 0.5-1-8.5-1.2 0.9 3.9 0.6-0.7-0.7 2.9 9.9 0.5 2.2q0 0 0 0.1 0 0.1 0.1 0.1 0 0.1 0 0.1 0 0 0 0.1c0.1 0 0-0.3 0-0.2q0 0.1 0 0.1 0 0 0 0 0 0.1 0 0.1 0 0.1 0 0.1l-0.4 5.8c0 0.4 0 0.6 0 0.9q0 0.1 0 0.3 0.1 0.1 0.1 0.2 0.1 0.1 0.1 0.3 0.1 0.1 0.2 0.2l1.3 2.6-0.2-0.4 0.8 9.5c0.1 1.3 0.1 2.6 0.3 3.9q0 0.2 0 0.3 0.1 0.1 0.1 0.2 0.1 0.2 0.1 0.2 0 0.2 0 0.4l0.8 2.5 1.5 4.9q0.1 0.1 0.2 0.3 0.1 0.1 0.1 0.2 0.2 0.1 0.4 0.1 0 0.1 0.2 0.1l4.9 0.6 2.7 0.2c0.2 0.1 0.5 0.1 0.6 0.1 0.4 0 0.7-0.3 1-0.6l1.9-2.1q0.2-0.2 0.2-0.3 0.1-0.2 0.1-0.4 0-0.3-0.2-0.4-0.1-0.2-0.3-0.3l-5.3-3.6 0.4 0.5-3-8.3-0.8-2.1q0-0.2-0.1-0.3 0-0.1 0-0.2-0.1-0.1-0.1-0.3 0-0.1-0.1-0.1c0.1 0 0 0.3 0.1 0q0 0 0 0 0-0.1 0-0.1 0 0 0-0.1v-1-2.7-2.6q0-0.1 0-0.2 0-0.1 0-0.2 0 0 0-0.1 0-0.1 0-0.1c0-0.2-0.1 0.3 0 0 0.6-1.5 1-3.2 1.5-4.7q0.2-0.3 0.2-0.7 0.1-0.3 0.2-0.6 0.1-0.3 0.2-0.7 0-0.3 0.1-0.6l0.4-4.2 0.7-5.8c0.1-1.2 0.3-2.5 0.4-3.7q0-0.2 0-0.3l-0.7 0.9 11.7-1.5q0.2-0.1 0.4-0.1 0.1 0 0.4 0 0.1-0.1 0.3-0.1 0.2 0 0.3-0.1c0.5-0.1 0.9-0.7 1.2-1l4.8-5c1.2-1.3 2.5-2.6 3.6-4 0.3-0.3 0.4-0.8 0.4-1.2l0.3-2.4 0.7-7.4 0.3-3.2c0-0.6 0.1-1.1 0.1-1.6 0-0.5-0.2-0.9-0.5-1.3l-1.4-2.9-3.1-5.7-0.2-0.4-0.5 1.3 5.5-1.1 3.5-0.8c0.6-0.1 1.5-0.1 2-0.5 0.8-0.7 1.4-1.5 2.2-2.3q0.1-0.1 0.1-0.2 0.1-0.1 0.1-0.3 0.1-0.1 0-0.3 0-0.1-0.1-0.2l-1.7-3-1-1.8c-0.3-0.5-0.5-1.1-1-1.2q-0.3-0.1-0.6-0.1-0.4-0.1-0.6-0.2-0.3 0-0.7-0.1-0.3 0-0.6 0l-4.8-0.8-3-0.5 0.5 0.3-1.5-1.8q-0.2-0.2-0.3-0.4-0.2-0.3-0.3-0.4-0.2-0.3-0.4-0.5-0.2-0.2-0.4-0.4-0.1-0.1-0.2-0.1-0.1-0.1-0.3-0.2 0 0-0.2 0-0.1 0-0.2 0l-1.5-0.3-1.4-0.2c-0.4-0.1-0.8-0.3-1.2 0-1.3 0.6-2.6 1.5-3.9 2.3l-2.4 1.6c-0.5 0.2-1.1 0.5-1.3 1-0.5 1.3-0.8 2.6-1.3 3.9l-1 2.8q-0.1 0.2-0.2 0.4-0.1 0.2-0.2 0.5-0.1 0.2-0.2 0.5-0.1 0.2-0.2 0.5c0 0.4 0.2 1 0.4 1.4l0.7 2.8 1.5 5.4q0 0.1 0 0.2 0 0 0 0.1 0 0.1 0 0.1 0 0.1 0 0.1c0.1 0.2 0-0.2 0-0.1q0 0 0 0 0 0.1 0 0.1 0 0 0 0.1v8.3l0.9-1-2.8-0.3 0.9 0.7-1.4-5.9c-0.6-2.4-1-4.7-1.6-7-0.2-0.5-0.6-0.8-1-1.1l-2.8-2.6-6-5.1q0-0.1 0-0.1 0 0 0 0-0.1 0-0.1 0 0-0.1-0.1-0.1c-0.2-0.1 0.1 0 0.1 0.1 0-0.1-0.4-0.4-0.4-0.6l-2-3.2c-1.2-2.1-2.4-4.2-3.8-6.2-0.2-0.5-0.7-0.7-1.2-0.9l-3.4-1.5-7.6-3.4c-0.5-0.2-1-0.6-1.6-0.4-0.9 0.2-1.8 0.6-2.7 0.9l-7.8 2.4-0.6 0.2q0 0.1-0.2 0.1-0.1 0.1-0.2 0.2-0.1 0.2-0.1 0.3-0.1 0.1-0.1 0.3l-0.5 8-0.1 1.2 0.3-0.7-8.8 10.6q-0.3 0.2-0.6 0.5-0.2 0.4-0.5 0.6-0.2 0.3-0.5 0.7-0.1 0.3-0.4 0.6l-4.1 6.2-4.5 6.7c-0.3 0.5-0.7 1-1 1.5-0.2 0.4-0.2 1.1-0.3 1.5l-0.9 8-0.4 3.7-0.1 1.3q0 0 0 0.1 0 0.1 0 0.2 0 0.1 0 0.1 0 0.1 0 0.2 0 0.2 0.1 0.4 0.1 0.3 0.2 0.5 0.1 0.2 0.2 0.4 0.1 0.2 0.3 0.4l1.6 3.6 3.2 6.9 0.1 0.4q0.1 0.1 0.3 0.2 0.1 0.1 0.2 0.1 0.2 0.1 0.3 0.1 0.1 0 0.3 0 0.1-0.1 0.2-0.2 0.2 0 0.3-0.1 0.1-0.2 0.1-0.3 0-0.1 0-0.3l0.6-4.6 0.3-3.1c0.1-0.6 0.2-1.1 0.3-1.6 0-0.5-0.1-1-0.2-1.5l-0.2-3.2-0.2-2.7q0 0 0-0.1 0 0 0-0.1 0 0 0-0.1 0 0-0.1-0.1c0-0.1 0.1 0.2 0 0.2 0.1-0.1 0.2-0.5 0.3-0.6l1.8-5.6-1.8-0.2 0.5 5c0.3 2.1 0.4 4.2 0.7 6.2v0.2c0 0 0.1-0.4 0-0.2q0 0.2 0 0.5l-0.3 2.2-1 7.3-0.9 6.6q-0.1 0.6-0.2 1.4 0 0 0 0.2 0 0.2 0 0.3 0 0.2 0 0.3 0 0.1 0.1 0.3l1.2 12.6q0 0 0 0.1 0 0.1 0 0.1c0.1 0.1 0.1-0.3 0-0.2q0 0.1 0 0.2-0.1 0-0.1 0.1 0 0.1 0 0.2 0 0.1 0 0.1l-0.8 3-1.6 6.5-0.2 0.5c-0.2 1.2 1.5 1.7 1.8 0.5z"/><path class="a" d="m40 58.3l-1.9 11.1q-0.4 2.3-0.7 4.7-0.1 0.2 0 0.3 0 0.2 0 0.4 0 0.1 0.1 0.3 0 0.1 0.1 0.3l1.1 2.9 2.1 5.8q0 0.2 0.1 0.2 0.1 0.2 0.2 0.3 0.1 0.1 0.3 0.1 0.1 0 0.3 0h2.1c0.7 0 2 0.3 2.4-0.4 0.9-1.3 1.7-2.6 2.5-4l0.9-1.6q0.1-0.2 0.1-0.4 0.1-0.1 0-0.2 0-0.2-0.1-0.3 0-0.1-0.1-0.3l-4.6-5.3-0.7-0.9 0.2 0.4-2.3-11.7-0.3-1.7q-0.1-0.2-0.2-0.4-0.2-0.1-0.2-0.2-0.2-0.1-0.4-0.1-0.2 0-0.4 0-0.1 0.1-0.3 0.2-0.2 0.1-0.2 0.2-0.1 0.2-0.1 0.4 0 0.2 0 0.3l1.8 9.3c0.3 1.4 0.5 2.8 0.9 4.1q0 0.1 0 0.2 0.1 0.2 0.1 0.3 0.1 0.1 0.2 0.2 0.1 0.1 0.2 0.2l1.6 1.8 3.5 4-0.2-1-3.4 5.6 0.8-0.4h-3.8l0.8 0.6-3-8.2-0.4-1.1v0.4l0.9-5.4 1.4-8.6 0.4-2q0-0.1 0-0.3 0-0.2-0.2-0.4-0.1-0.1-0.2-0.2-0.1-0.1-0.3-0.2-0.2 0-0.4 0-0.2 0-0.3 0.1-0.2 0.1-0.3 0.2-0.1 0.2-0.1 0.4z"/></svg>