<svg version="1.2" xmlns="http://www.w3.org/2000/svg" viewBox="0 0 283 283" width="117" height="117">
	<title>Perl_Onion-svg</title>
	<style>
		.s0 { fill: #000000 } 
	</style>
	<path id="path2995" fill-rule="evenodd" class="s0" d="m118.7 277.4c-29.8-5.3-55.3-18.9-76.4-40.7-17.9-18.5-30.3-41.9-35.9-67.9-2.4-11.2-2.4-43.4 0-54.6 3.8-17.6 11.2-35.1 21.2-50.3 6.7-10.1 26.2-29.6 36.3-36.3 15.2-10 32.7-17.4 50.3-21.2 11.2-2.4 43.4-2.4 54.6 0 27.4 5.9 50.2 18.3 69.9 37.9 19.6 19.7 32 42.5 37.9 69.9 2.4 11.2 2.4 43.4 0 54.6-5.9 27.4-18.3 50.2-37.9 69.8-19.4 19.4-41.9 31.7-68.8 37.8-9.6 2.2-41.2 2.8-51.2 1zm24.7-27.3c0-9-0.1-9.7-1.9-9.7-1.8 0-1.9 0.7-1.9 8.4 0.1 9.1 0.8 11.9 2.6 11.3 0.9-0.3 1.2-3.2 1.2-10zm-14.4 3.1c2.5-2.6 3.3-4.1 3.3-6.9 0-2.8-0.4-3.5-1.6-3.3-0.9 0.2-2 1.7-2.4 3.3-0.5 1.6-2.2 4-3.8 5.5-3.1 2.5-3.2 4.7-0.3 4.7 0.8 0 3-1.5 4.8-3.3zm32 2.2c0.3-0.6-0.8-2.2-2.5-3.6-1.6-1.5-3.3-3.9-3.8-5.5-0.4-1.6-1.5-3.1-2.4-3.3-1.2-0.2-1.6 0.5-1.6 3.3 0 5.6 8 12.7 10.3 9.1zm-44.2-17.4c0-0.6-1.4-1.8-3.1-2.7-10.8-5.9-23.5-15.3-30.5-22.7-13.8-14.3-20-28.6-20.1-46.4-0.1-11.8 1.4-18 7.2-29.1 5.6-10.7 12-18.8 29.8-37.3 19.9-20.6 24.5-26.1 27.9-33.2 2.5-5.1 2.8-6.9 3.1-17.6 0.5-13.3-0.4-22.5-1.9-22.5-0.8 0-0.9 3.5-0.5 11.2 1.3 24.8-3.3 32.5-31.9 53.2-19.6 14.3-28.7 22.1-35.5 30.6-9.7 12-13.9 22.4-15 36.4-2.6 34 18.9 63.4 56.9 77.9 8.3 3.2 13.6 4 13.6 2.2zm65.6-2.8c13.1-5.4 23-12 32.4-21.4 14.2-14.3 20.2-27.7 21-47.6 0.8-17.4-3-28.9-13.7-41.9-7.4-9-15.4-15.3-36.8-29.6-28.8-19.1-35.6-26.8-35.6-40.1 0-3.5 0.7-8.6 1.5-11.2 1.3-4.4 1.3-7.4-0.1-3.9-1.2 3.3-4.1 1.8-5.7-3l-1.5-4.7 0.6 4.4c2 15.5 2.2 22 1.3 35.6-1.2 18.3-3.4 30.8-9.6 53.6-6.1 22.6-7.3 30.8-6.5 48.1 0.7 14.6 2.7 25.5 7.4 39.8 4.5 13.2 5.3 14.2 13.4 16.3 4.4 1.1 8.7 3.1 12 5.5 3.2 2.3 6.3 3.7 8.1 3.8 1.6 0 6.9-1.6 11.8-3.7zm-2.9-6.6c-1.2-1.2-0.6-2.2 4.1-7.4 14.9-16.5 21.6-33.5 21.8-55.5 0.1-14.9-3.2-24.8-13.3-39.7-4.5-6.8-20.6-23.6-28.4-29.8-5.7-4.5-11.5-12.2-12.6-16.6-1-4.4 2-3.2 5.4 2.1 1.7 2.7 5.3 6.5 8.1 8.6 2.8 2.1 11 8.2 18.2 13.6 25 18.5 36.1 34.4 38.6 54.9 1.4 11.9-0.9 24.2-6.7 35.6-6 11.8-16.9 24.7-26.3 31-5.8 3.8-7.6 4.5-8.9 3.2zm-48.9 1.3c0.3-0.7-2.2-5.4-5.5-10.4-8.8-13.3-12.7-20.6-16.3-31-3-8.7-3.1-9.9-3.2-23.2 0-20.2 2.2-26.6 18.2-53.2 15.1-25.1 17.1-34.8 15.4-73.4-0.6-13.8-1.3-25.3-1.5-25.5-1.6-1.6-1.9 2.5-1.4 16.4 1.2 27.7-0.6 43.1-6.4 55.7-4 8.6-8.4 15.2-20.4 30-16.7 20.6-21.4 31.5-21.3 49.5 0.1 12.3 1.8 19.8 6.7 30.3 5.4 11.4 15.3 22.9 27.7 32.1 5.7 4.3 7.2 4.8 8 2.7z"/>
</svg>