<svg version="1.2" xmlns="http://www.w3.org/2000/svg" viewBox="0 0 144 144" width="144" height="144"><style>.a{fill:#fff}</style><path class="a" d="m140.1 84.7l-5.4-5 0.4 0.8q0.3-2.2 0.4-4.5l-0.6 0.9 6.4-3.8q0.2-0.1 0.4-0.4 0.1-0.2 0.1-0.5 0-0.3-0.1-0.6-0.2-0.2-0.4-0.4l-6.4-3.8 0.5 1c-0.1-1.6-0.2-3.2-0.5-4.8l-0.3 1.1 5.5-5c0.7-0.6 0.3-1.6-0.5-1.9l-7-2.5 0.7 0.8q-0.5-2.2-1.3-4.2l-0.1 0.8 4.5-6q0.2-0.2 0.2-0.5 0-0.3-0.1-0.5-0.1-0.3-0.3-0.4-0.2-0.2-0.4-0.3l-7.6-1.1 0.7 0.5q-1-1.9-2-3.7v1.1l3.2-6.9c0.4-0.7 0-1.7-0.9-1.7l-7.7 0.4 0.8 0.3q-1.3-1.6-2.7-3.2l0.3 1.1 1.8-7.5q0.1-0.3 0-0.6-0.1-0.3-0.3-0.5-0.2-0.2-0.5-0.2-0.3-0.1-0.6-0.1l-7.5 1.9 1.1 0.3q-1.7-1.4-3.4-2.8l0.5 1 0.4-7.8c0.1-0.9-1-1.3-1.7-0.9l-7 3.3h1.1c-1.2-0.7-2.4-1.4-3.6-1.9l0.5 0.6-1.1-7.6q-0.1-0.3-0.3-0.5-0.1-0.2-0.4-0.3-0.2-0.1-0.5-0.1-0.2 0.1-0.5 0.2l-6.3 4.6 0.9-0.1q-1.9-0.7-3.9-1.2l0.8 0.8-2.6-7.3c-0.3-0.8-1.3-1.2-1.9-0.5l-5.3 5.7 0.8-0.3q-2-0.2-4-0.4l0.9 0.6-4-6.7q-0.1-0.2-0.4-0.4-0.3-0.1-0.6-0.1-0.3 0-0.5 0.1-0.3 0.2-0.4 0.4l-4 6.7 0.9-0.6q-2 0.1-4.1 0.4l0.8 0.3-5.2-5.7c-0.6-0.7-1.6-0.3-1.9 0.5l-2.6 7.2 0.8-0.8q-2 0.6-4 1.2l0.9 0.1-6.2-4.5q-0.3-0.1-0.5-0.2-0.3 0-0.5 0.1-0.3 0.1-0.4 0.3-0.2 0.2-0.3 0.5l-1.1 7.5 0.5-0.7q-1.9 1-3.8 2h1.2l-6.9-3.2c-0.8-0.4-1.8 0-1.7 0.9l0.3 7.6 0.6-1q-1.9 1.4-3.6 2.9l1.1-0.2-7.4-1.9q-0.2 0-0.5 0.1-0.3 0-0.5 0.2-0.2 0.2-0.3 0.5-0.1 0.3 0 0.6l1.8 7.2 0.3-1.1q-1.5 1.7-2.9 3.5l0.8-0.3-7.4-0.4c-0.9 0-1.4 1-1 1.7l3.1 6.6v-1.1q-1.1 2-2.2 4.1l0.7-0.6-7.2 1.1q-0.3 0.1-0.5 0.3-0.2 0.1-0.3 0.4-0.1 0.2 0 0.5 0 0.2 0.1 0.5l4.3 5.8-0.1-0.9q-0.8 2.2-1.4 4.6l0.8-0.8-6.8 2.4c-0.8 0.3-1.2 1.3-0.5 1.9l5.3 4.7-0.3-1.1q-0.4 2.6-0.6 5.2l0.6-1-6.1 3.7q-0.2 0.1-0.4 0.4-0.1 0.3-0.1 0.6 0 0.3 0.1 0.5 0.2 0.3 0.4 0.4l6 3.6-0.5-0.9q0.1 2.5 0.4 5l0.4-0.8-5.2 4.7c-0.7 0.6-0.3 1.6 0.5 1.8l6.5 2.4-0.8-0.8q0.6 2.5 1.5 4.9l0.1-0.8-4.1 5.5q-0.2 0.2-0.2 0.4 0 0.3 0.1 0.5 0.1 0.3 0.3 0.5 0.2 0.1 0.4 0.2l6.8 1-0.7-0.5q1.2 2.4 2.5 4.6v-1.1l-2.9 6.1c-0.4 0.7 0 1.8 0.9 1.7l6.8-0.3-1-0.6q1.7 2.3 3.6 4.4l-0.3-1.1-1.6 6.5q-0.1 0.3 0 0.6 0.1 0.3 0.3 0.5 0.2 0.2 0.5 0.3 0.3 0.1 0.6 0l6.5-1.6-1.1-0.3q2.1 1.9 4.4 3.6l-0.6-1-0.3 6.7c-0.1 0.9 1 1.3 1.7 1l6-2.9h-1.1q2.3 1.4 4.8 2.6l-0.5-0.7 0.9 6.6q0.1 0.2 0.3 0.4 0.2 0.2 0.4 0.3 0.2 0.1 0.5 0.1 0.3 0 0.5-0.1l5.3-4-0.8 0.1q2.5 0.9 5.2 1.6l-0.8-0.8 2.3 6.3c0.2 0.7 1.2 1.1 1.8 0.5l4.5-5-1.1 0.3q2.9 0.4 5.7 0.6l-1-0.6 3.5 5.7q0.1 0.3 0.4 0.4 0.2 0.2 0.5 0.2 0.3 0 0.6-0.2 0.3-0.1 0.4-0.4l3.5-5.7-1 0.6q2.8-0.2 5.7-0.6l-1.1-0.3 4.5 5c0.6 0.6 1.6 0.2 1.9-0.5l2.2-6.3-0.8 0.7q2.6-0.6 5.2-1.5l-0.9-0.1 5.4 4q0.2 0.1 0.5 0.1 0.3 0 0.5-0.1 0.2-0.1 0.4-0.3 0.2-0.2 0.3-0.4l1-6.7-0.6 0.7q2.4-1.2 4.7-2.5h-1.2l6.2 2.9c0.7 0.3 1.8-0.1 1.7-1l-0.3-6.8-0.6 0.9q2.2-1.6 4.2-3.4l-1.1 0.3 6.7 1.6q0.3 0.1 0.6 0 0.3 0 0.5-0.3 0.2-0.2 0.3-0.5 0.1-0.3 0-0.5l-1.7-6.8-0.3 1.1q1.8-2 3.4-4.1l-1 0.5 7 0.3c0.9 0.1 1.3-0.9 1-1.7l-3-6.4v1.2q1.2-2.1 2.2-4.3l-0.6 0.5 7-1.1q0.3-0.1 0.5-0.2 0.2-0.2 0.3-0.5 0.1-0.2 0.1-0.5-0.1-0.2-0.2-0.5l-4.3-5.7 0.1 0.8q0.8-2.2 1.4-4.5l-0.8 0.8 6.8-2.5c1.4-0.5 0.8-2.6-0.6-2.1-2.2 0.7-4.4 1.5-6.6 2.3q-0.1 0-0.1 0.1-0.1 0-0.1 0-0.1 0-0.2 0.1 0 0-0.1 0c-0.6 0.4-0.7 1.5-0.9 2.2q-0.3 1.2-0.7 2.3c-0.2 0.5-0.4 1.1-0.1 1.6 0.6 1 1.4 1.9 2 2.8l2.3 3 0.6-1.7c-2.2 0.4-4.6 0.6-6.9 1-1 0.2-1.3 1.6-1.7 2.4q-0.5 0.9-1 1.8c-0.4 0.6-0.7 1.1-0.4 1.8 0.5 1.1 1 2.1 1.5 3.1l1.6 3.3 0.9-1.7c-2.3-0.1-4.5-0.3-6.8-0.3-1.1 0-1.6 1.2-2.2 1.9q-0.7 0.8-1.3 1.6c-0.4 0.5-1.1 1-0.9 1.8 0.2 1.1 0.5 2.1 0.7 3.2l1 3.6 1.3-1.4c-2.2-0.5-4.3-1.1-6.5-1.6-1.1-0.3-1.9 0.8-2.6 1.4q-0.8 0.7-1.6 1.3c-0.6 0.4-1.3 0.8-1.4 1.6 0 1 0.1 2.1 0.2 3.1l0.2 3.7 1.7-0.9c-2.1-1-4.1-1.9-6.1-2.9q-0.1 0-0.2-0.1-0.1 0-0.1 0-0.1-0.1-0.2-0.1-0.1 0-0.2 0c-0.7 0-1.6 0.7-2.2 1.1q-0.9 0.5-1.8 1c-0.6 0.3-1.5 0.5-1.7 1.2q-0.1 0.4-0.2 0.8 0 0.4-0.1 0.8 0 0.4-0.1 0.8 0 0.4-0.1 0.8l-0.5 3.5 1.7-0.6-2.4-1.8c-1-0.7-2-1.5-3-2.2-0.8-0.5-2 0.2-2.9 0.5-0.7 0.2-1.3 0.4-2 0.6-0.8 0.2-1.6 0.3-1.9 1.1-0.4 0.9-0.7 1.9-1.1 2.9l-1.2 3.4 1.9-0.5c-1.5-1.6-2.9-3.4-4.5-4.9-0.7-0.7-2.2-0.2-3.1-0.1q-1 0.1-2.1 0.2c-0.7 0-1.5-0.1-2 0.6-0.6 0.9-1 1.8-1.6 2.6l-1.8 3.1h1.9c-1.1-1.8-2.2-3.8-3.4-5.6-0.6-0.9-2.1-0.7-3.1-0.8q-1 0-2-0.2c-0.7-0.1-1.5-0.3-2.1 0.2-0.7 0.7-1.4 1.5-2.1 2.2l-2.4 2.7 1.9 0.5c-0.7-2.1-1.4-4.1-2.2-6.2-0.4-1-1.8-1.1-2.8-1.4q-1-0.3-2-0.6c-0.7-0.2-1.5-0.7-2.1-0.3q-0.3 0.2-0.7 0.4-0.3 0.2-0.6 0.5-0.3 0.2-0.6 0.4-0.3 0.3-0.6 0.5l-2.9 2.1 1.7 0.7-0.5-2.9c-0.1-1.2-0.2-2.4-0.5-3.6q0-0.1-0.1-0.2 0-0.1-0.1-0.2-0.1-0.1-0.2-0.2-0.1-0.1-0.2-0.2c-0.7-0.3-1.4-0.6-2-1q-1-0.5-1.9-1c-0.7-0.4-1.2-0.8-2-0.5-0.9 0.4-1.8 0.9-2.8 1.4l-3.2 1.5 1.7 0.9c0.1-2.1 0.4-4.4 0.3-6.5q0-0.2 0-0.3 0-0.1 0-0.2-0.1-0.1-0.1-0.2-0.1-0.1-0.2-0.2c-0.5-0.6-1.2-1-1.8-1.5-0.6-0.4-1.1-0.8-1.6-1.3-0.5-0.4-1-1.1-1.8-1-1 0.2-2 0.5-3 0.8l-3.6 0.9 1.4 1.4c0.6-2.1 1.2-4.2 1.6-6.4 0.3-1.1-0.9-2-1.6-2.7q-0.6-0.8-1.2-1.6c-0.5-0.5-0.8-1.3-1.6-1.3-1.1-0.1-2.1 0.1-3.2 0.1l-3.5 0.2 0.9 1.7c1-2 2-4 2.9-6.1q0 0 0.1-0.1 0-0.1 0-0.2 0.1-0.1 0.1-0.2 0 0 0-0.1c0-0.7-0.7-1.6-1.1-2.2-0.3-0.6-0.7-1.3-1-2-0.3-0.6-0.5-1.4-1.2-1.6q-0.4 0-0.8-0.1-0.4-0.1-0.8-0.1-0.4-0.1-0.8-0.1-0.4-0.1-0.8-0.1l-3.6-0.6 0.7 1.7 1.8-2.4c0.8-1 1.6-2 2.2-3 0.6-0.9-0.1-2.1-0.4-2.9q-0.3-1.1-0.6-2.1c-0.2-0.8-0.3-1.4-1-1.7-1.1-0.4-2.1-0.7-3.1-1.1l-3.4-1.2 0.5 1.9c1.6-1.6 3.4-3 5-4.6 0.8-0.8 0.3-2.1 0.2-3q-0.1-1.2-0.2-2.4c0-0.6 0-1.1-0.6-1.5-0.9-0.6-1.9-1.2-2.9-1.7l-3.1-1.9v1.9c2-1.1 4-2.3 6-3.5 0.9-0.6 0.7-1.9 0.8-2.9q0.1-1.1 0.3-2.3c0-0.6 0.2-1.1-0.3-1.5-0.8-0.9-1.7-1.6-2.5-2.3l-2.7-2.5-0.5 1.9q3.3-1.2 6.5-2.4 0.1 0 0.2 0 0 0 0.1-0.1 0 0 0.1 0 0 0 0.1-0.1c0.7-0.3 0.8-1.5 1-2.2q0.3-1.1 0.7-2.2c0.2-0.6 0.4-1.1 0.1-1.7q-0.2-0.3-0.5-0.7-0.2-0.3-0.5-0.7-0.3-0.3-0.5-0.7-0.3-0.3-0.6-0.6l-2.2-3.1-0.7 1.7c2.3-0.4 4.7-0.6 7-1 1-0.2 1.3-1.4 1.7-2.2q0.6-1 1.2-2c0.3-0.6 0.5-1 0.2-1.6-0.5-1.1-1-2.2-1.5-3.3l-1.6-3.4-1 1.8c2.5 0.1 4.9 0.3 7.3 0.3 1.1 0 1.6-1.1 2.2-1.9q0.7-0.8 1.4-1.6c0.4-0.4 0.6-0.8 0.5-1.4-0.2-1.2-0.6-2.3-0.9-3.5l-0.9-3.7-1.4 1.4c2.4 0.6 4.8 1.2 7.1 1.8q0.1 0 0.1 0 0.1 0 0.1 0 0.1 0 0.1 0 0.1 0 0.1 0c0.8 0.1 1.5-0.8 2.1-1.3q0.9-0.7 1.8-1.4 0.2-0.1 0.3-0.2 0.2-0.1 0.3-0.3 0.1-0.2 0.1-0.3 0.1-0.2 0.1-0.4c0-1.2-0.1-2.5-0.2-3.7l-0.2-3.8-1.7 1q3.4 1.6 6.7 3.2l0.2 0.1c0.9 0.4 1.7-0.4 2.5-0.8q0.9-0.5 1.9-1c0.5-0.2 0.9-0.4 1.1-1q0.1-0.4 0.2-0.9 0-0.5 0.1-0.9 0.1-0.5 0.1-1 0.1-0.4 0.1-0.9l0.6-3.8-1.7 0.7 6 4.4c0.8 0.6 1.7 0.1 2.6-0.2q1.1-0.3 2.2-0.6 0.2-0.1 0.4-0.2 0.2 0 0.3-0.2 0.1-0.1 0.2-0.2 0.2-0.2 0.2-0.4c0.5-1.1 0.9-2.3 1.3-3.5l1.3-3.6-1.9 0.5 5 5.5q0.1 0.1 0.2 0.2c0.6 0.6 1.6 0.2 2.4 0.2 0.7-0.1 1.5-0.2 2.3-0.2q0.2 0 0.4-0.1 0.1 0 0.3-0.1 0.2-0.1 0.3-0.2 0.1-0.1 0.3-0.3c0.6-1 1.3-2.2 1.9-3.2l2-3.4h-1.9l3.8 6.5 0.2 0.2c0.5 0.7 1.5 0.6 2.2 0.7q1.2 0.1 2.3 0.2 0.2 0.1 0.4 0.1 0.2 0 0.3-0.1 0.2 0 0.4-0.1 0.1-0.1 0.3-0.2c0.9-0.9 1.7-1.9 2.5-2.8l2.7-2.9-1.9-0.5 2.5 7 0.1 0.3c0.3 0.8 1.2 0.9 2 1.1 0.8 0.3 1.5 0.5 2.2 0.7 0.5 0.2 1 0.3 1.4 0 1.1-0.7 2.1-1.5 3.1-2.2l3.1-2.3-1.6-0.7 1.1 7.4c0.1 0.9 1.1 1.2 1.9 1.6 0.7 0.4 1.4 0.8 2 1.1q0.2 0.1 0.4 0.2 0.2 0.1 0.3 0.1 0.2 0 0.4 0 0.2-0.1 0.4-0.2 1.7-0.8 3.4-1.6l3.6-1.7-1.7-0.9-0.4 7.4q0 0.2 0 0.3c0 0.8 1 1.3 1.5 1.8 0.6 0.4 1.2 1 1.8 1.5q0.1 0.1 0.3 0.2 0.2 0.1 0.3 0.2 0.2 0 0.4 0 0.2 0 0.4 0c1.2-0.3 2.4-0.6 3.7-0.9l3.7-0.9-1.4-1.4-1.8 7.2q0 0.1 0 0.3c-0.2 0.9 0.6 1.4 1.1 2q0.8 0.9 1.5 1.8c0.3 0.5 0.6 0.8 1.2 0.8 1.3 0 2.5-0.1 3.8-0.2l3.8-0.2-0.9-1.8-3.2 6.7-0.1 0.3c-0.4 0.8 0.2 1.5 0.6 2.2 0.4 0.7 0.7 1.3 1.1 2 0.2 0.5 0.4 1 1 1.2q0.5 0.1 0.9 0.1 0.5 0.1 1 0.2 0.4 0 0.9 0.1 0.4 0.1 0.9 0.1l3.8 0.6-0.6-1.7c-1.5 2-3 3.9-4.4 5.9-0.6 0.8-0.1 1.7 0.2 2.5q0.4 1.1 0.7 2.2c0.2 0.7 0.3 1.1 1 1.3 1.1 0.5 2.3 0.9 3.4 1.3l3.6 1.3-0.5-1.9c-1.8 1.6-3.6 3.2-5.3 4.8q-0.1 0.1-0.2 0.2c-0.6 0.6-0.2 1.6-0.2 2.3 0.1 0.8 0.2 1.6 0.3 2.4 0 0.6 0 1.2 0.6 1.5 1 0.7 2 1.2 3 1.8l3.4 2v-1.9c-2.1 1.2-4.2 2.4-6.2 3.6-0.9 0.6-0.7 1.7-0.8 2.7q-0.1 1.1-0.3 2.2c0 0.6-0.1 1.1 0.3 1.6 0.8 0.9 1.8 1.6 2.6 2.4l2.8 2.5c1.1 1 2.7-0.6 1.6-1.5z"/><path class="a" d="m64.4 23.4l6.2 6.2 0.9 0.9q0.2 0.2 0.4 0.2 0.2 0.1 0.4 0.1 0.3 0 0.5-0.1 0.2 0 0.3-0.2l6.3-6.2 0.9-0.9-1.1 0.3q4.9 0.7 9.5 2.3 4.7 1.6 8.9 4.2 4.3 2.5 7.9 5.8 3.7 3.3 6.7 7.2 0.8 1.1 1.6 2.3 0.7 1.1 1.4 2.3 0.7 1.2 1.4 2.5 0.6 1.2 1.2 2.5v-1.1l-4.1 8-0.6 1.2q-0.1 0.2-0.2 0.4 0 0.2 0.1 0.4 0 0.2 0.2 0.4 0.1 0.2 0.3 0.3l7.5 3.8 1.1 0.6-0.5-0.7q0.2 1.4 0.3 2.9 0.1 1.4 0.1 2.8 0.1 1.5 0 2.9 0 1.4-0.2 2.9l1.1-1.2h-11.6q-0.2 0-0.3 0.1-0.2 0-0.3 0.1-0.1 0.1-0.2 0.2-0.1 0.1-0.2 0.2l-3.8 8.4-0.6 1.2h2q-2.2-2.9-4.4-5.7c-2.3-2.9-4.5-5.8-7-8.6-0.7-0.8-1.7-2.1-2.9-2.2l1 1.7 5.9-8.2q0.1-0.1 0.2-0.2 0.1-0.1 0.2-0.3 0.1-0.1 0.2-0.2 0.1-0.1 0.1-0.3c0.3-0.5 0.1-1.1 0-1.6l-1.2-5.5-1.2-5.7c0-0.4-0.1-0.8-0.2-1.1-0.2-0.5-0.7-0.8-1.1-1.1l-9.5-6.6c-0.6-0.4-1.3-1.1-2-1.1q-0.9 0-1.8 0h-51.7l0.8 2q2.3-2.9 5-5.4 2.7-2.5 5.7-4.5 3-2.1 6.3-3.7 3.3-1.6 6.8-2.8 1-0.3 2-0.6 1.1-0.2 2.1-0.5 1.1-0.2 2.1-0.4 1.1-0.2 2.2-0.3 0.2-0.1 0.4-0.2 0.1-0.2 0.3-0.4 0.1-0.2 0.1-0.4 0-0.2 0-0.4-0.1-0.2-0.2-0.4-0.2-0.2-0.4-0.3-0.2-0.1-0.4-0.1-0.2-0.1-0.4 0-4.9 0.7-9.5 2.2-4.6 1.6-8.9 4-4.3 2.4-8 5.6-3.7 3.1-6.8 6.9c-0.6 0.8-0.3 2 0.8 2h51.4c0.7 0 1.4 0 2.1 0q0 0 0 0 0 0 0 0 0 0 0.1 0 0 0 0 0l-0.6-0.2 10 6.9 1.5 1-0.6-0.7 2.5 11.5 0.3 1.7 0.1-0.9-5.8 8-0.8 1.2c-0.6 0.7 0.2 1.6 1 1.7-0.2 0-0.4-0.1-0.5-0.1 0.1 0 0.2 0 0.2 0.1 0.1 0.1-0.2-0.2 0 0l0.2 0.2q0.6 0.5 1.2 1.2c1.1 1.2 2.2 2.4 3.2 3.7q1.8 2.3 3.6 4.5 0.9 1.1 1.7 2.2c0 0 0.2 0.2 0.1 0.1l0.1 0.2 0.4 0.4 0.6 0.9 1.5 1.9c0.4 0.6 1.6 0.8 1.9 0l3.8-8.4 0.5-1.2-0.9 0.6h11.6q0.2 0 0.4-0.1 0.2-0.1 0.4-0.3 0.2-0.1 0.2-0.3 0.1-0.2 0.1-0.5 0.1-0.9 0.2-1.9 0-1 0.1-2 0-1-0.1-2 0-1 0-2-0.1-0.5-0.1-1 0-0.4-0.1-0.9 0-0.5-0.1-1-0.1-0.5-0.1-1-0.1-0.2-0.1-0.3-0.1-0.2-0.2-0.3-0.1-0.2-0.3-0.3-0.1-0.1-0.3-0.1l-6.2-3.2-2.1-1.1 0.4 1.6 4.4-8.6q0.1-0.3 0.3-0.6c0.3-0.6 0-1.1-0.3-1.8q-1-2.1-2.2-4.2-2.4-4.1-5.5-7.7-3.1-3.7-6.9-6.7-3.7-3-8-5.3-4.2-2.2-8.8-3.7-2.3-0.7-4.7-1.2-1.1-0.3-2.4-0.5c-0.8-0.1-1.6-0.4-2.2 0.1-1.1 1-2.1 2.1-3.2 3.1l-3.7 3.8-0.3 0.2h1.6l-6.2-6.2-0.9-0.9c-1.1-1.1-2.7 0.5-1.6 1.6z"/><path class="a" d="m78.9 56.4v6.9l0.9-1.1-1.8 0.7-1.4 0.6q-0.1 0-0.2 0.1-0.1 0-0.2 0-0.1 0.1-0.2 0.1-0.1 0.1-0.2 0.1c-0.2 0.2 0.3 0 0.1 0q-0.2 0-0.4 0h-15.9l1.1 1.2v-10.1l-1.1 1.1h15.5q0.1 0 0.2 0 0.1 0.1 0.2 0.1 0.1 0 0.3-0.1 0.1 0 0.2 0c-0.1 0-0.4-0.1-0.2 0q0 0 0.1 0.1 0 0 0.1 0 0 0 0.1 0 0 0.1 0.1 0.1l1.4 0.5 2.2 0.8q0.2 0 0.4 0 0.2 0 0.4-0.1 0.2-0.2 0.3-0.3 0.2-0.2 0.2-0.4 0.1-0.2 0.1-0.5-0.1-0.2-0.2-0.4-0.1-0.2-0.3-0.3-0.1-0.1-0.3-0.2c-1.4-0.5-2.7-1.1-4.1-1.5-0.7-0.2-1.7 0-2.5 0h-14.2q-0.2 0-0.5 0.1-0.2 0.1-0.3 0.2-0.2 0.2-0.2 0.4-0.1 0.2-0.1 0.4v10.1q0 0.2 0.1 0.4 0 0.2 0.2 0.4 0.2 0.1 0.4 0.2 0.2 0.1 0.4 0.1h13.7c0.9 0 1.8 0 2.7 0 0.7 0 1.5-0.5 2.2-0.8l2.2-0.9q0.1-0.1 0.3-0.2 0.1-0.1 0.2-0.2 0.2-0.2 0.2-0.3 0.1-0.2 0.1-0.4v-6.9c0-1.5-2.3-1.5-2.3 0z"/><path class="a" d="m22.3 66.9l7.8-3.9 1.1-0.6q0.2-0.1 0.3-0.3 0.2-0.2 0.2-0.4 0.1-0.2 0.1-0.4-0.1-0.3-0.2-0.5l-3.3-6.5-1 1.7h12.1l-1.2-1.1v32.7l1.2-1.1h-16l1.1 0.8q-0.8-2.5-1.3-5.2-0.4-2.6-0.7-5.2-0.2-2.7-0.1-5.4 0.1-2.6 0.4-5.3 0.1-0.2 0-0.4 0-0.2-0.1-0.4-0.1-0.2-0.3-0.3-0.2-0.2-0.4-0.2c-0.5-0.2-1.3 0.1-1.4 0.8q-0.3 2.7-0.4 5.6-0.1 2.8 0.1 5.6 0.2 2.8 0.7 5.5 0.6 2.8 1.4 5.5 0 0.2 0.1 0.3 0.1 0.2 0.3 0.3 0.1 0.1 0.3 0.2 0.2 0 0.3 0h16q0.2 0 0.4-0.1 0.2 0 0.4-0.2 0.1-0.2 0.2-0.4 0.1-0.2 0.1-0.4v-32.7q0-0.2-0.1-0.4-0.1-0.2-0.2-0.4-0.2-0.1-0.4-0.2-0.2-0.1-0.4-0.1h-12.1q-0.3 0-0.5 0.1-0.3 0.2-0.4 0.4-0.2 0.3-0.2 0.6 0 0.3 0.1 0.6l3.4 6.5 0.4-1.5-7.8 3.9-1.1 0.6c-1.3 0.6-0.2 2.6 1.1 1.9z"/><path class="a" d="m108 108.3l-9-1.5-1.3-0.2c-0.6 0-1.3 0.2-1.4 0.8l-1.4 9-0.2 1.2 0.5-0.6c-3.5 1.8-7.2 3.2-11.1 4.1-3.8 1-7.8 1.5-11.7 1.5-4 0-7.9-0.5-11.8-1.4-3.8-0.9-7.6-2.3-11.1-4.1l0.5 0.7-1.4-9.1-0.2-1.3c-0.1-0.6-0.9-0.8-1.4-0.8l-9.2 1.5-1.3 0.2 1.1 0.3q-0.9-0.9-1.8-1.8-0.9-0.9-1.7-1.9-0.8-1-1.6-2-0.7-1-1.5-2l-0.9 1.7h35.8c1.6 0 3.3 0.1 4.9 0h0.1q0.2 0 0.4-0.1 0.2-0.1 0.4-0.2 0.2-0.2 0.3-0.4 0-0.2 0-0.4v-13.9q0-0.2 0-0.4-0.1-0.2-0.3-0.4-0.2-0.1-0.4-0.2-0.2-0.1-0.4-0.1h-11.3l1.1 1.1v-10.1l-1.1 1.2h12.6l-1-0.6 5.2 7 9 12.2 2.9 4q0.3 0.3 0.6 0.7 0.1 0.2 0.3 0.3 0.1 0.1 0.3 0.2 0.2 0.1 0.4 0.1 0.2 0 0.4 0h19.6c1.4 0 2.8 0 4.2 0q0.1 0 0.2 0l-0.9-1.7q-0.8 1-1.5 2-0.8 1-1.6 2-0.8 0.9-1.7 1.8-0.8 1-1.7 1.8c-1.1 1.1 0.5 2.6 1.6 1.6q0.9-0.9 1.8-1.9 0.9-0.9 1.8-2 0.9-1 1.7-2 0.8-1.1 1.5-2.2c0.5-0.7-0.2-1.7-1-1.7h-24.4l0.9 0.6-3.3-4.6-7.1-9.5-6-8.2q-0.6-0.8-1.2-1.6-0.1-0.1-0.3-0.3-0.1-0.1-0.3-0.2-0.2 0-0.3-0.1-0.2 0-0.4 0h-12.3q-0.3 0-0.5 0.1-0.2 0.1-0.3 0.2-0.2 0.2-0.3 0.4-0.1 0.2-0.1 0.4v10.1q0 0.2 0.1 0.4 0.1 0.2 0.3 0.4 0.1 0.2 0.3 0.2 0.2 0.1 0.5 0.1h11.3l-1.1-1.1v13.9l1.1-1.2h-35.8c-1.6 0-3.3 0-4.9 0h-0.1c-0.8 0-1.5 1-1 1.7q0.6 0.9 1.2 1.7 0.6 0.8 1.2 1.6 0.6 0.7 1.3 1.5 0.6 0.8 1.3 1.5 0.7 0.7 1.3 1.3c0.5 0.5 0.9 1 1.7 0.9l0.6-0.1 7.5-1.2 2.4-0.4-1.4-0.8 1.4 8.7c0.1 0.5 0.1 1 0.2 1.6q0.1 0.1 0.1 0.2 0.1 0.1 0.1 0.3 0.1 0.1 0.2 0.2 0.1 0 0.3 0.1 0.2 0.2 0.5 0.3 0.3 0.1 0.6 0.3 0.2 0.1 0.5 0.2 0.3 0.2 0.6 0.3 1.2 0.5 2.4 1 1.2 0.5 2.4 0.9 1.2 0.4 2.4 0.7 1.2 0.4 2.5 0.7 2.6 0.6 5.2 0.9 2.6 0.3 5.3 0.4 2.6 0.1 5.3-0.1 2.6-0.2 5.2-0.7 1.3-0.2 2.5-0.5 1.3-0.3 2.5-0.6 1.2-0.4 2.4-0.8 1.2-0.4 2.4-0.9 2.4-0.9 4.8-2.1c0.7-0.4 0.8-0.8 0.9-1.5l1.5-9.3v-0.3l-1.3 0.8 8.9 1.4 1.3 0.2q0.3 0.1 0.5 0.1 0.2-0.1 0.4-0.2 0.2-0.1 0.3-0.3 0.2-0.1 0.2-0.3 0.1-0.3 0.1-0.5-0.1-0.2-0.2-0.4-0.1-0.2-0.3-0.3-0.1-0.2-0.3-0.2z"/><path class="a" d="m72 19.8c-1.3 0-2.4-1.1-2.4-2.4 0-1.4 1.1-2.4 2.4-2.4 1.3 0 2.4 1 2.4 2.4 0 1.3-1.1 2.4-2.4 2.4z"/><path class="a" d="m73.3 17.4q0 0.1 0 0.2c0 0.2 0-0.1 0-0.1q0 0 0 0.1-0.1 0-0.1 0 0 0.1 0 0.1 0 0 0 0.1 0 0 0 0 0 0.1 0 0.1 0 0 0 0-0.1 0-0.1 0.1c0 0 0.2-0.3 0.1-0.1-0.1 0.1-0.1 0.2-0.2 0.3-0.1 0.2 0.1-0.2 0-0.1q0 0.1-0.1 0.2h-0.1c-0.1 0.1-0.2 0.1 0.1 0q-0.2 0.1-0.3 0.2l-0.1 0.1c-0.2 0.1 0.3-0.1 0 0q-0.2 0-0.3 0.1c-0.1 0-0.2-0.1 0.1 0q-0.1 0-0.1 0 0 0 0 0 0 0-0.1 0 0 0 0 0-0.2 0-0.3 0c-0.2 0 0.3 0 0 0l-0.2-0.1q0 0 0 0 0 0-0.1 0 0 0 0 0 0 0 0 0c-0.2-0.1-0.1-0.1 0.1 0q-0.1 0-0.1 0 0-0.1-0.1-0.1 0 0-0.1 0 0 0 0-0.1-0.1 0-0.2 0c-0.1-0.1 0.3 0.1 0.1 0q0 0-0.1-0.1 0 0 0 0-0.1-0.1-0.1-0.1 0 0-0.1-0.1c0.2 0.1 0.2 0.2 0.1 0.1-0.1-0.1-0.1-0.1-0.1-0.2q0 0-0.1-0.1c0-0.1 0-0.2 0 0.1 0-0.1 0-0.2-0.1-0.3v-0.1c0-0.3 0 0.2 0 0q0-0.1 0-0.1 0-0.1 0-0.1 0 0 0-0.1 0 0 0-0.1c0-0.1 0.1-0.2 0 0.1q0-0.1 0-0.1c0.1-0.1 0.1-0.2 0.1-0.4 0.1-0.2-0.1 0.3 0 0.1l0.1-0.2 0.1-0.1c0.1-0.1 0.1-0.1 0 0 0 0 0.1-0.1 0.2-0.2 0 0 0.2-0.1 0 0-0.2 0.1 0 0 0 0q0.1 0 0.1-0.1 0.1 0 0.1 0 0.1 0 0.1 0 0-0.1 0.1-0.1c0 0-0.3 0.1-0.1 0h0.2c0 0 0.3-0.1 0.1-0.1-0.2 0.1 0 0 0.1 0h0.1 0.2c0.2 0-0.2 0 0 0q0 0 0.1 0.1 0 0 0.1 0 0 0 0.1 0 0 0 0 0c0.3 0.1-0.1-0.1 0 0 0.1 0.1 0.1 0.1 0.2 0.1q0 0 0 0 0 0 0 0 0 0.1 0.1 0.1 0 0 0 0 0 0 0 0 0 0 0 0 0 0 0.1 0 0 0 0 0.1-0.2-0.2-0.1-0.1l0.2 0.2c0.2 0.2-0.1-0.2 0 0q0.1 0.1 0.1 0.1l0.1 0.2c0.1 0.2-0.1-0.2 0 0q0.1 0.2 0.1 0.3c0 0.2 0 0.1 0-0.1q0 0.1 0 0.1 0 0 0 0.1 0 0 0 0 0 0.1 0 0.1c0 0.3 0.1 0.6 0.3 0.8 0.2 0.2 0.5 0.3 0.8 0.3 0.3 0 0.6-0.1 0.8-0.3 0.2-0.2 0.4-0.5 0.4-0.8q-0.1-0.5-0.2-1.1-0.2-0.5-0.5-0.9-0.3-0.5-0.8-0.8-0.4-0.3-0.9-0.5-0.5-0.2-1.1-0.2-0.5 0-1 0.1-0.5 0.1-1 0.4-0.4 0.3-0.7 0.7c-0.8 0.9-1.1 2.1-0.8 3.2 0.3 1.1 1.1 2 2.2 2.4 1.1 0.4 2.3 0.2 3.2-0.4 1-0.7 1.6-1.8 1.6-2.9 0-0.3-0.2-0.6-0.4-0.8-0.2-0.2-0.5-0.3-0.8-0.3-0.3 0-0.6 0.1-0.8 0.3-0.2 0.2-0.3 0.5-0.3 0.8z"/><path class="a" d="m125.2 60.8c-1.3 0-2.4-1.1-2.4-2.4 0-1.3 1.1-2.4 2.4-2.4 1.3 0 2.4 1.1 2.4 2.4 0 1.3-1.1 2.4-2.4 2.4z"/><path class="a" d="m126.5 58.4q0 0.1 0 0.2c0 0.2 0-0.1 0-0.1q0 0 0 0.1-0.1 0-0.1 0.1 0 0 0 0 0 0.1 0 0.1 0 0 0 0.1 0 0 0 0 0 0 0 0 0 0.1-0.1 0.1c0 0 0.2-0.3 0.1-0.1-0.1 0.1-0.1 0.2-0.2 0.3-0.1 0.2 0.1-0.1 0 0q0 0 0 0 0 0 0 0 0 0 0 0-0.1 0.1-0.1 0.1l-0.1 0.1c0 0-0.2 0.1 0.1 0q-0.2 0.1-0.3 0.1l-0.1 0.1c-0.2 0.1 0.3-0.1 0 0q-0.2 0-0.3 0.1c-0.1 0-0.2 0 0.1 0q-0.1 0-0.1 0 0 0 0 0 0 0-0.1 0 0 0 0 0 0 0-0.1 0 0 0-0.1 0 0 0-0.1 0 0 0 0 0c-0.2 0 0.3 0 0 0l-0.2-0.1h-0.1c-0.1-0.1-0.1-0.1 0.1 0q-0.1 0-0.1 0 0 0-0.1-0.1 0 0 0 0-0.1 0-0.1 0l-0.2-0.1c-0.1-0.1 0.3 0.2 0.1 0q0 0-0.1 0 0-0.1 0-0.1-0.1 0-0.1-0.1 0 0-0.1 0c0.2 0 0.2 0.1 0.1 0-0.1-0.1-0.1-0.1-0.1-0.1l-0.1-0.1c0-0.1 0-0.2 0 0 0-0.1 0-0.2-0.1-0.3v-0.1c0-0.2 0 0.3 0 0q0-0.2 0-0.3c0-0.1 0.1-0.3 0 0q0 0 0 0 0 0 0 0 0-0.1 0-0.1 0 0 0 0 0.1-0.2 0.1-0.3c0.1-0.2-0.1 0.2 0 0l0.1-0.1 0.1-0.2c0.1-0.1 0.1 0 0 0.1 0-0.1 0.1-0.2 0.2-0.2 0-0.1 0.2-0.2 0-0.1-0.2 0.1 0 0 0 0q0.1 0 0.1 0 0.1 0 0.1-0.1 0.1 0 0.1 0 0 0 0.1-0.1c0 0-0.3 0.1-0.1 0.1l0.2-0.1c0 0 0.3-0.1 0.1 0-0.2 0 0 0 0.1 0h0.2 0.1c0.2 0-0.2-0.1 0 0l0.4 0.1c0.2 0-0.2-0.1-0.1-0.1 0.1 0.1 0.1 0.1 0.2 0.1l0.1 0.1 0.1 0.1q-0.2-0.2-0.1-0.1 0.1 0.1 0.2 0.3c0.2 0.1-0.1-0.3 0-0.1q0.1 0.1 0.1 0.2l0.1 0.1c0.1 0.2-0.1-0.2 0 0q0.1 0.2 0.1 0.4c0.1 0.1 0 0.1 0-0.1q0 0 0 0 0 0.1 0 0.1 0 0 0 0.1 0 0 0 0 0 0.3 0.1 0.5 0.1 0.2 0.3 0.3 0.1 0.2 0.3 0.3 0.2 0.1 0.5 0.1 0.2 0 0.4-0.1 0.2-0.1 0.3-0.3 0.2-0.1 0.3-0.3 0.1-0.2 0.1-0.5 0-0.5-0.2-1-0.2-0.5-0.5-1-0.3-0.4-0.7-0.8-0.5-0.3-1-0.5-0.5-0.2-1-0.2-0.6 0-1.1 0.1-0.5 0.2-0.9 0.5-0.5 0.2-0.8 0.6c-0.8 0.9-1.1 2.1-0.8 3.2 0.3 1.1 1.1 2 2.2 2.4 1.1 0.4 2.3 0.3 3.3-0.4 0.9-0.6 1.5-1.7 1.5-2.9 0-0.3-0.1-0.5-0.4-0.8-0.2-0.2-0.4-0.3-0.7-0.3-0.3 0-0.6 0.1-0.8 0.3-0.3 0.3-0.4 0.5-0.4 0.8z"/><path class="a" d="m19.3 60.3c-1.3 0-2.4-1.1-2.4-2.4 0-1.3 1.1-2.4 2.4-2.4 1.3 0 2.4 1.1 2.4 2.4 0 1.3-1.1 2.4-2.4 2.4z"/><path class="a" d="m20.6 57.9q0 0.1 0 0.2c0 0.2 0-0.1 0-0.1q-0.1 0.1-0.1 0.1 0 0 0 0.1 0 0 0 0 0 0.1 0 0.1 0 0.1 0 0.1-0.1 0-0.1 0 0 0 0 0.1 0 0 0 0c0 0 0.1-0.2 0.1-0.1-0.1 0.2-0.2 0.2-0.2 0.3-0.2 0.2 0.1-0.1 0 0q-0.1 0-0.1 0.1l-0.1 0.1c-0.1 0.1-0.2 0.1 0 0q-0.1 0.1-0.2 0.2h-0.1c-0.2 0.1 0.2-0.1 0 0q-0.2 0.1-0.3 0.1c-0.1 0-0.2 0 0 0q-0.1 0-0.1 0c-0.1 0-0.3 0-0.4 0-0.1 0 0.3 0.1 0.1 0h-0.2l-0.2-0.1c-0.1-0.1 0-0.1 0.1 0q0 0 0 0-0.1 0-0.1-0.1 0 0-0.1 0 0 0 0 0-0.1 0-0.1-0.1 0 0 0 0 0 0 0 0 0 0-0.1 0c-0.1-0.1 0.2 0.2 0.1 0q0 0-0.1 0 0-0.1 0-0.1-0.1 0-0.1-0.1 0 0-0.1 0c0.2 0 0.2 0.1 0.1 0-0.1-0.1-0.1-0.1-0.1-0.1l-0.1-0.1c0-0.1 0-0.2 0 0 0-0.1 0-0.2-0.1-0.3v-0.1c0-0.2 0 0.3 0 0q0-0.1 0-0.1 0 0 0-0.1 0 0 0 0 0-0.1 0-0.1c0-0.1 0.1-0.3 0 0q0-0.1 0-0.1c0-0.1 0.1-0.2 0.1-0.3 0.1-0.2-0.1 0.2 0 0l0.1-0.2h0.1c0.1-0.2 0.1-0.1 0 0q0 0 0-0.1 0 0 0.1 0 0 0 0-0.1 0 0 0.1 0c0-0.1 0.2-0.2 0-0.1-0.2 0.2 0 0 0 0q0.1 0 0.1 0 0.1 0 0.1 0 0-0.1 0.1-0.1 0 0 0.1 0c0-0.1-0.3 0.1-0.1 0l0.2-0.1c0 0 0.3 0 0.1 0-0.2 0 0 0 0.1 0h0.1 0.2c0.2 0-0.2-0.1 0 0q0.2 0 0.3 0.1c0.2 0.1-0.1-0.1 0 0 0.1 0.1 0.1 0 0.2 0.1h0.1q0 0.1 0 0.1 0 0 0 0 0 0 0 0 0.1 0 0.1 0-0.2-0.2-0.1 0 0.1 0.1 0.2 0.2c0.2 0.1-0.1-0.2 0-0.1q0.1 0.1 0.1 0.2l0.1 0.2c0.1 0.1-0.1-0.3 0-0.1q0.1 0.2 0.1 0.4c0 0.1 0 0.1 0-0.1q0 0 0 0.1 0 0 0 0 0 0.1 0 0.1 0 0 0 0.1c0 0.3 0.1 0.5 0.3 0.8 0.3 0.2 0.5 0.3 0.8 0.3 0.3 0 0.6-0.1 0.8-0.3 0.3-0.3 0.4-0.5 0.4-0.8q0-0.6-0.2-1.1-0.2-0.5-0.5-1-0.3-0.4-0.8-0.7-0.4-0.4-0.9-0.6-0.5-0.1-1-0.2-0.6 0-1.1 0.2-0.5 0.1-0.9 0.4-0.5 0.3-0.8 0.7c-0.8 0.8-1.1 2-0.8 3.2 0.2 1.1 1.1 2 2.2 2.4 1.1 0.4 2.3 0.3 3.2-0.4 1-0.7 1.5-1.8 1.5-3q0-0.2-0.1-0.4-0.1-0.2-0.2-0.4-0.2-0.1-0.4-0.2-0.2-0.1-0.4-0.1-0.2 0-0.4 0.1-0.3 0.1-0.4 0.2-0.2 0.2-0.3 0.4 0 0.2 0 0.4z"/><path class="a" d="m40.8 118.9c-1.3 0-2.4-1-2.4-2.4 0-1.3 1.1-2.4 2.4-2.4 1.4 0 2.4 1.1 2.4 2.4 0 1.4-1 2.4-2.4 2.4z"/><path class="a" d="m42.1 116.5q0 0.1 0 0.2c0 0.2 0 0 0-0.1q0 0.1 0 0.1 0 0.1 0 0.1-0.1 0-0.1 0.1 0 0 0 0.1 0 0 0 0 0 0 0 0 0 0.1 0 0.1 0 0 0 0c0 0 0.1-0.2 0-0.1-0.1 0.2-0.1 0.3-0.2 0.4-0.1 0.1 0.1-0.2 0-0.1q0 0.1-0.1 0.1l-0.1 0.1c0 0.1-0.2 0.1 0.1 0q-0.1 0.1-0.3 0.2h-0.1c-0.2 0.1 0.3 0 0 0q-0.1 0.1-0.3 0.1c-0.1 0.1-0.2 0 0.1 0q-0.1 0-0.2 0c0 0-0.2 0-0.3 0-0.1 0 0.3 0.1 0 0h-0.1l-0.2-0.1c-0.1 0-0.1-0.1 0.1 0.1q-0.1-0.1-0.1-0.1 0 0-0.1 0 0 0 0-0.1-0.1 0-0.1 0-0.1 0-0.1-0.1c-0.2-0.1 0.2 0.2 0 0.1q0-0.1 0-0.1-0.1 0-0.1-0.1 0 0-0.1 0 0-0.1 0-0.1c0.1 0.1 0.1 0.2 0 0.1 0-0.1-0.1-0.1-0.1-0.2v-0.1c-0.1-0.1-0.1-0.2 0 0 0-0.1-0.1-0.2-0.1-0.3l-0.1-0.1c0-0.2 0 0.3 0 0q0 0 0-0.1 0 0 0 0 0-0.1 0-0.1 0 0 0-0.1c0-0.1 0.1-0.2 0 0.1q0-0.1 0.1-0.2c0 0 0-0.2 0-0.3 0.1-0.2-0.1 0.3 0 0.1l0.1-0.2 0.1-0.1c0.1-0.2 0.1-0.1 0 0q0 0 0 0 0.1-0.1 0.1-0.1 0 0 0-0.1 0.1 0 0.1 0c0 0 0.2-0.2 0 0-0.1 0.1 0 0 0.1 0q0-0.1 0-0.1 0.1 0 0.1 0 0.1-0.1 0.1-0.1 0 0 0.1 0c0-0.1-0.3 0.1-0.1 0l0.2-0.1c0 0 0.3 0 0.1 0-0.2 0 0 0 0.1 0h0.2 0.1c0.3 0-0.2-0.1 0 0q0.2 0 0.4 0.1c0.2 0.1-0.2-0.1-0.1 0 0.1 0.1 0.1 0 0.2 0.1l0.1 0.1q0 0 0 0 0 0 0 0 0.1 0 0.1 0 0 0 0 0-0.2-0.1-0.1 0l0.2 0.2c0.2 0.1-0.1-0.2 0 0q0.1 0 0.1 0.1l0.1 0.2c0.1 0.2-0.1-0.3 0-0.1q0.1 0.2 0.1 0.4c0 0.1 0 0.1 0-0.1q0 0 0 0.1 0 0 0 0 0 0.1 0 0.1 0 0 0 0.1c0 0.3 0.1 0.6 0.3 0.8 0.3 0.2 0.5 0.3 0.8 0.3 0.3 0 0.6-0.1 0.8-0.3 0.2-0.2 0.4-0.5 0.4-0.8q0-0.6-0.2-1.1-0.2-0.5-0.5-1-0.3-0.4-0.8-0.7-0.4-0.4-0.9-0.6-0.5-0.1-1-0.1-0.6-0.1-1.1 0.1-0.5 0.1-0.9 0.4-0.5 0.3-0.8 0.7c-0.8 0.8-1.1 2-0.8 3.2 0.3 1.1 1.1 2 2.2 2.4 1.1 0.4 2.3 0.2 3.3-0.4 0.9-0.7 1.5-1.8 1.5-3q0-0.2-0.1-0.4-0.1-0.2-0.3-0.3-0.1-0.2-0.3-0.3-0.2-0.1-0.5-0.1-0.2 0-0.4 0.1-0.2 0.1-0.4 0.3-0.1 0.1-0.2 0.3-0.1 0.2-0.1 0.4z"/><path class="a" d="m103.6 119.3c-1.3 0-2.4-1.1-2.4-2.4 0-1.3 1.1-2.4 2.4-2.4 1.4 0 2.4 1.1 2.4 2.4 0 1.3-1 2.4-2.4 2.4z"/><path class="a" d="m104.9 116.9q0 0.1 0 0.2c0 0.2 0-0.1 0-0.1q0 0.1 0 0.1 0 0 0 0.1 0 0 0 0.1-0.1 0-0.1 0 0 0.1 0 0.1 0 0 0 0 0 0 0 0.1 0 0 0 0c0 0 0.1-0.2 0-0.1-0.1 0.2-0.1 0.2-0.2 0.3-0.1 0.2 0.2-0.1 0.1 0q-0.1 0-0.1 0 0 0 0 0 0 0.1 0 0.1 0 0 0 0l-0.1 0.1c-0.1 0.1-0.2 0.1 0 0q-0.1 0.1-0.3 0.2h-0.1c-0.2 0.1 0.3-0.1 0 0q-0.1 0.1-0.3 0.1c-0.1 0-0.1 0 0.1 0q0 0 0 0-0.1 0-0.1 0 0 0 0 0 0 0-0.1 0 0 0-0.1 0 0 0 0 0-0.1 0-0.1 0-0.1 0-0.1 0c-0.2 0 0.3 0.1 0.1 0h-0.2l-0.2-0.1c-0.1 0 0-0.1 0.1 0q0 0-0.1 0 0 0 0 0-0.1-0.1-0.1-0.1-0.1 0-0.1 0l-0.1-0.1c-0.1-0.1 0.2 0.2 0 0q0 0 0 0-0.1-0.1-0.1-0.1 0 0-0.1-0.1 0 0 0 0c0.1 0.1 0.1 0.2 0 0.1 0-0.1 0-0.1-0.1-0.2v-0.1c-0.1-0.1-0.1-0.2 0 0 0-0.1-0.1-0.2-0.1-0.3l-0.1-0.1c0-0.2 0 0.3 0 0q0-0.1 0-0.3c0-0.1 0.1-0.3 0 0q0.1 0 0.1 0 0 0 0 0 0 0 0-0.1 0 0 0 0 0-0.1 0.1-0.3c0-0.2-0.2 0.2 0 0l0.1-0.1v-0.2c0.1-0.1 0.2 0 0 0.1 0.1-0.1 0.1-0.2 0.2-0.2 0.1-0.1 0.2-0.2 0-0.1-0.1 0.1 0 0 0.1 0q0 0 0.1 0 0-0.1 0-0.1 0.1 0 0.1 0 0.1 0 0.1-0.1c0 0-0.3 0.1-0.1 0.1l0.2-0.1c0.1 0 0.4-0.1 0.2 0-0.2 0 0 0 0 0h0.3c0.3 0-0.2-0.1 0 0l0.4 0.1c0.2 0-0.2-0.1-0.1-0.1 0.1 0.1 0.1 0.1 0.2 0.1l0.1 0.1 0.1 0.1q-0.2-0.2-0.1-0.1l0.3 0.2c0.1 0.2-0.2-0.2 0 0l0.1 0.2v0.1c0.1 0.2 0-0.2 0 0q0.1 0.2 0.2 0.4c0 0.1-0.1 0.1 0-0.1q0 0-0.1 0 0 0.1 0 0.1 0 0 0 0.1 0.1 0 0.1 0 0 0.3 0 0.5 0.1 0.2 0.3 0.3 0.1 0.2 0.4 0.3 0.2 0.1 0.4 0.1 0.2 0 0.4-0.1 0.2-0.1 0.4-0.3 0.1-0.1 0.2-0.3 0.1-0.2 0.1-0.5 0-0.5-0.2-1-0.1-0.6-0.5-1-0.3-0.4-0.7-0.8-0.5-0.3-1-0.5-0.5-0.2-1-0.2-0.5 0-1 0.1-0.5 0.2-1 0.4-0.4 0.3-0.8 0.7c-0.7 0.9-1 2.1-0.7 3.2 0.2 1.1 1.1 2 2.1 2.4 1.1 0.4 2.3 0.3 3.3-0.4 0.9-0.6 1.5-1.7 1.5-2.9 0-0.3-0.1-0.6-0.3-0.8-0.2-0.2-0.5-0.3-0.8-0.3-0.3 0-0.6 0.1-0.8 0.3-0.2 0.2-0.3 0.5-0.3 0.8z"/></svg>