<svg xmlns="http://www.w3.org/2000/svg" xmlns:xlink="http://www.w3.org/1999/xlink" version="1.1" id="Layer_1" x="0px" y="0px" viewBox="0 0 630 630" style="enable-background:new 0 0 630 630;" xml:space="preserve">
<style type="text/css">
	.st0{fill:#009CA8;stroke:#FFFFFF;stroke-width:10px;}
	.st1{fill:#FFFFFF;}
	.st2{fill:#99D7DC;}
</style>
<path id="XMLID_1_" class="st0" d="M549.8,144.6L345.1,26.4c-9.1-4.9-20.7-7.9-32.3-7.9s-23.8,2.4-32.3,7.9L74.7,144.6  c-17.7,10.4-32.3,35.3-32.3,56v237c0,20.7,14.6,45.7,32.3,56L280,612.4c17.7,10.4,46.9,10.4,64.6,0l205.3-118.8  c17.7-10.4,32.3-35.3,32.3-56V201.3C582.7,180.5,568.1,155,549.8,144.6z"/>
<g>
	<path class="st1" d="M261.3,403.3c0,0-13.2,7.7,9.4,10.3c27.4,3.1,41.4,2.7,71.5-3c0,0,7.9,5,19,9.3   C293.6,448.8,208.2,418.1,261.3,403.3"/>
	<path class="st1" d="M253.1,365.5c0,0-14.8,11,7.8,13.3c29.2,3,52.3,3.3,92.3-4.4c0,0,5.5,5.6,14.2,8.7   C285.6,406.9,194.6,384.9,253.1,365.5"/>
	<path class="st2" d="M322.7,301.3c16.7,19.2-4.4,36.4-4.4,36.4s42.3-21.8,22.9-49.2c-18.1-25.5-32.1-38.2,43.3-81.9   C384.5,206.7,266.3,236.3,322.7,301.3"/>
	<path class="st1" d="M412.1,431.3c0,0,9.8,8-10.8,14.3c-39,11.8-162.4,15.4-196.7,0.5c-12.3-5.4,10.8-12.8,18.1-14.4   c7.6-1.6,11.9-1.3,11.9-1.3c-13.7-9.7-88.6,19-38,27.2C334.5,479.8,447.9,447.4,412.1,431.3"/>
	<path class="st1" d="M267.7,326.3c0,0-62.8,14.9-22.2,20.3c17.1,2.3,51.2,1.8,83-0.9c26-2.2,52.1-6.9,52.1-6.9s-9.2,3.9-15.8,8.4   c-63.7,16.8-186.9,9-151.4-8.2C243.3,324.7,267.7,326.3,267.7,326.3"/>
	<path class="st1" d="M380.3,389.2c64.8-33.7,34.8-66,13.9-61.7c-5.1,1.1-7.4,2-7.4,2s1.9-3,5.5-4.3c41.4-14.5,73.2,42.9-13.4,65.6   C379,390.9,380,390,380.3,389.2"/>
	<path class="st2" d="M341.2,136.2c0,0,35.9,35.9-34,91.1c-56.1,44.3-12.8,69.5,0,98.4c-32.7-29.5-56.7-55.5-40.6-79.7   C290.2,210.4,355.7,193.2,341.2,136.2"/>
	<path class="st1" d="M274.1,480.5c62.2,4,157.7-2.2,160-31.6c0,0-4.3,11.2-51.4,20c-53.1,10-118.6,8.8-157.4,2.4   C225.2,471.3,233.2,477.9,274.1,480.5"/>
</g>
</svg>
