<svg width="357" height="276" viewBox="0 0 357 276" fill="none" xmlns="http://www.w3.org/2000/svg">
<path d="M348.886 43.5342L104.295 1.24209C100.328 0.556105 96.5555 3.2161 95.8695 7.18339L64.3148 189.676C63.6288 193.643 66.2889 197.415 70.2562 198.101L314.847 240.393C318.814 241.079 322.586 238.419 323.272 234.452L354.827 51.9596C355.513 47.9923 352.853 44.2202 348.886 43.5342Z" fill="white" stroke="black" stroke-width="1.5" stroke-miterlimit="10"/>
<path d="M92.1714 28.2241L351.121 73.0142" stroke="black" stroke-width="1.5" stroke-miterlimit="10"/>
<path d="M312.211 41.1342H63.9912C59.9651 41.1342 56.7012 44.3979 56.7012 48.4241V233.624C56.7012 237.65 59.9651 240.914 63.9912 240.914H312.211C316.237 240.914 319.501 237.65 319.501 233.624V48.4241C319.501 44.3979 316.237 41.1342 312.211 41.1342Z" fill="white" stroke="black" stroke-width="1.5" stroke-miterlimit="10"/>
<path d="M56.7012 69.6941H319.501" stroke="black" stroke-width="1.5" stroke-miterlimit="10"/>
<path d="M235.481 152.544L170.861 186.244L235.481 219.944L300.101 186.244L235.481 152.544Z" fill="white" stroke="black" stroke-width="1.5" stroke-miterlimit="10"/>
<path d="M238.491 154.954L178.501 186.244L238.491 217.524L298.481 186.244L238.491 154.954Z" fill="#0C6EFC"/>
<path d="M235.481 130.864L170.861 164.554L235.481 198.254L300.101 164.554L235.481 130.864Z" fill="white" stroke="black" stroke-width="1.5" stroke-miterlimit="10"/>
<path d="M238.491 133.274L178.501 164.554L238.491 195.844L298.481 164.554L238.491 133.274Z" fill="#0C6EFC"/>
<path d="M235.481 109.174L170.861 142.874L235.481 176.564L300.101 142.874L235.481 109.174Z" fill="white" stroke="black" stroke-width="1.5" stroke-miterlimit="10"/>
<path d="M238.491 111.584L178.501 142.874L238.491 174.154L298.481 142.874L238.491 111.584Z" fill="#0C6EFC"/>
<path d="M235.481 87.4941L170.861 121.184L235.481 154.884L300.101 121.184L235.481 87.4941Z" fill="white" stroke="black" stroke-width="1.5" stroke-miterlimit="10"/>
<path d="M238.491 89.9041L178.501 121.184L238.491 152.474L298.481 121.184L238.491 89.9041Z" fill="#0C6EFC"/>
<path d="M69.6714 118.844V117.271H86.1582V118.844H69.6714ZM93.5062 116.559C92.149 116.559 90.9999 116.255 90.059 115.647C89.1181 115.039 88.402 114.202 87.9107 113.137C87.4277 112.062 87.1779 110.83 87.1613 109.439C87.1779 108.024 87.4361 106.783 87.9357 105.717C88.4353 104.643 89.1555 103.811 90.0964 103.219C91.0374 102.62 92.1781 102.32 93.5187 102.32C94.8843 102.32 96.0708 102.653 97.0784 103.319C98.0942 103.986 98.7895 104.897 99.1642 106.055L97.3656 106.629C97.0492 105.822 96.5454 105.197 95.8543 104.756C95.1715 104.306 94.3888 104.081 93.5062 104.081C92.5153 104.081 91.6952 104.31 91.0457 104.768C90.3962 105.218 89.9133 105.847 89.5968 106.654C89.2804 107.462 89.1181 108.39 89.1097 109.439C89.1264 111.055 89.5011 112.354 90.2338 113.336C90.9666 114.311 92.0574 114.798 93.5062 114.798C94.4221 114.798 95.2007 114.59 95.8418 114.173C96.4913 113.749 96.9826 113.132 97.3157 112.325L99.1642 112.874C98.6646 114.073 97.9318 114.989 96.9659 115.622C96 116.247 94.8468 116.559 93.5062 116.559ZM107.009 116.559C105.669 116.559 104.524 116.255 103.575 115.647C102.625 115.039 101.897 114.198 101.389 113.124C100.881 112.05 100.627 110.818 100.627 109.427C100.627 108.011 100.885 106.771 101.401 105.705C101.918 104.639 102.65 103.811 103.6 103.219C104.557 102.62 105.694 102.32 107.009 102.32C108.358 102.32 109.507 102.624 110.457 103.232C111.414 103.831 112.143 104.668 112.642 105.742C113.15 106.808 113.404 108.036 113.404 109.427C113.404 110.843 113.15 112.087 112.642 113.162C112.135 114.227 111.402 115.06 110.444 115.66C109.487 116.259 108.342 116.559 107.009 116.559ZM107.009 114.798C108.508 114.798 109.624 114.302 110.357 113.311C111.09 112.312 111.456 111.017 111.456 109.427C111.456 107.795 111.085 106.496 110.344 105.53C109.612 104.564 108.5 104.081 107.009 104.081C106.002 104.081 105.169 104.31 104.511 104.768C103.862 105.218 103.375 105.847 103.05 106.654C102.734 107.454 102.576 108.378 102.576 109.427C102.576 111.051 102.95 112.354 103.7 113.336C104.449 114.311 105.552 114.798 107.009 114.798ZM121.393 116.559C120.136 116.559 119.061 116.247 118.17 115.622C117.279 114.989 116.597 114.136 116.122 113.062C115.647 111.987 115.41 110.776 115.41 109.427C115.41 108.086 115.643 106.879 116.11 105.805C116.584 104.731 117.263 103.881 118.145 103.257C119.028 102.632 120.086 102.32 121.318 102.32C122.584 102.32 123.649 102.628 124.515 103.244C125.381 103.861 126.035 104.706 126.476 105.78C126.926 106.846 127.151 108.061 127.151 109.427C127.151 110.768 126.93 111.979 126.489 113.062C126.047 114.136 125.398 114.989 124.54 115.622C123.683 116.247 122.634 116.559 121.393 116.559ZM121.58 114.848C122.538 114.848 123.329 114.615 123.953 114.148C124.578 113.682 125.044 113.041 125.352 112.225C125.66 111.4 125.814 110.468 125.814 109.427C125.814 108.37 125.66 107.437 125.352 106.629C125.044 105.813 124.578 105.176 123.953 104.718C123.337 104.26 122.559 104.031 121.618 104.031C120.652 104.031 119.852 104.269 119.22 104.743C118.587 105.218 118.116 105.863 117.808 106.679C117.508 107.495 117.359 108.411 117.359 109.427C117.359 110.451 117.513 111.375 117.821 112.2C118.137 113.016 118.608 113.661 119.232 114.136C119.857 114.61 120.639 114.848 121.58 114.848ZM125.814 116.184V106.03H125.614V98.1985H127.463V116.184H125.814ZM136.675 116.559C135.359 116.559 134.219 116.267 133.253 115.684C132.295 115.102 131.55 114.281 131.017 113.224C130.484 112.166 130.218 110.926 130.218 109.502C130.218 108.028 130.48 106.754 131.005 105.68C131.529 104.606 132.266 103.777 133.215 103.194C134.173 102.612 135.301 102.32 136.6 102.32C137.932 102.32 139.069 102.628 140.01 103.244C140.951 103.852 141.663 104.727 142.146 105.867C142.629 107.008 142.849 108.37 142.808 109.952H140.934V109.302C140.901 107.553 140.522 106.234 139.797 105.343C139.081 104.452 138.032 104.006 136.65 104.006C135.201 104.006 134.09 104.477 133.315 105.418C132.549 106.359 132.166 107.699 132.166 109.439C132.166 111.138 132.549 112.458 133.315 113.399C134.09 114.331 135.184 114.798 136.6 114.798C137.566 114.798 138.407 114.577 139.123 114.136C139.847 113.686 140.418 113.041 140.834 112.2L142.545 112.862C142.012 114.036 141.225 114.948 140.185 115.597C139.152 116.238 137.982 116.559 136.675 116.559ZM131.517 109.952V108.415H141.821V109.952H131.517Z" fill="black"/>
<path d="M86.6975 160.047L7.35576 179.785C3.29326 180.795 0.819271 184.908 1.82991 188.971L21.5679 268.312C22.5785 272.375 26.6911 274.849 30.7536 273.838L110.095 254.1C114.158 253.089 116.632 248.977 115.621 244.914L95.8832 165.573C94.8725 161.51 90.76 159.036 86.6975 160.047Z" fill="white" stroke="black" stroke-width="1.5" stroke-miterlimit="10"/>
<path d="M85.5529 163.276L11.3446 181.737C7.54473 182.682 5.23067 186.529 6.17597 190.329L24.6369 264.537C25.5822 268.337 29.4289 270.651 33.2288 269.705L107.437 251.244C111.237 250.299 113.551 246.452 112.606 242.653L94.1448 168.444C93.1995 164.644 89.3528 162.33 85.5529 163.276Z" fill="#0C6EFC"/>
<path d="M28.4814 224.514L43.5115 211.344L44.1514 213.904L31.4414 224.794L31.4614 224.864L47.8014 228.534L48.4414 231.094L28.9915 226.504L28.4915 224.494L28.4814 224.514Z" fill="white" stroke="white" stroke-width="1.5" stroke-linecap="round" stroke-linejoin="round"/>
<path d="M53.9912 231.304L57.6511 201.794L60.1812 201.164L56.4812 230.684L53.9912 231.304Z" fill="white" stroke="white" stroke-width="1.5" stroke-linecap="round" stroke-linejoin="round"/>
<path d="M86.6714 212.204L71.6315 225.334L70.9915 222.774L83.8214 211.854L83.8014 211.784L67.3514 208.144L66.7114 205.584L86.1514 210.134L86.6714 212.214V212.204Z" fill="white" stroke="white" stroke-width="1.5" stroke-linecap="round" stroke-linejoin="round"/>
</svg>
