<?xml version="1.0" encoding="utf-8"?>
<svg version="1.1" id="Layer_1" xmlns="http://www.w3.org/2000/svg" xmlns:xlink="http://www.w3.org/1999/xlink" x="0px" y="0px"
	 viewBox="0 0 630 630" style="enable-background:new 0 0 630 630;" xml:space="preserve">
<style type="text/css">
	.st0{fill:#6082BB;}
	.st1{fill:#FFFFFF;}
</style>
<g id="rect4138">
	<circle class="st0" cx="315" cy="315" r="315"/>
</g>
<path id="path3486" class="st1" d="M144.9,356.9c15.7,0,27.5-2.9,34.9-8.8c7.3-5.7,12.4-15.7,15.1-29.6c2.5-13,1.5-22-2.8-26.9
	c-4.4-5-14-7.5-28.5-7.5h-25.1l-13.9,72.8H144.9z M62.7,446.5c-1.2,0-2.3-0.5-3-1.4c-0.7-0.9-1-2.1-0.8-3.3l36.9-193
	c0.4-1.9,2-3.2,3.8-3.2h79.6c25,0,43.6,6.9,55.3,20.5c11.8,13.7,15.4,32.8,10.8,56.8c-1.9,9.8-5.1,18.9-9.6,27
	c-4.5,8.1-10.4,15.7-17.6,22.4c-8.6,8.2-18.4,14.1-29,17.6c-10.4,3.5-23.8,5.2-39.8,5.2h-32.2l-9.2,48.1c-0.4,1.9-2,3.2-3.8,3.2
	L62.7,446.5L62.7,446.5z"/>
<path id="path3494" class="st1" d="M343.5,395.2c-1.2,0-2.2-0.5-3-1.4c-0.7-0.9-1-2.1-0.8-3.3l16.1-85.4c1.5-8.1,1.2-13.9-1.1-16.4
	c-1.4-1.5-5.4-4-17.5-4H308L287.8,392c-0.4,1.9-1.9,3.2-3.8,3.2h-40.5c-1.2,0-2.2-0.5-3-1.4c-0.7-0.9-1-2.1-0.8-3.3l36.4-193
	c0.4-1.9,1.9-3.2,3.8-3.2h40.5c1.2,0,2.2,0.5,3,1.4c0.7,0.9,1,2.1,0.8,3.3l-8.8,46.6h31.4c23.9,0,40.2,4.3,49.6,13.3
	c9.6,9.1,12.6,23.7,8.9,43.3l-17,89.8c-0.4,1.9-1.9,3.2-3.8,3.2H343.5L343.5,395.2z"/>
<path id="path3502" class="st1" d="M480,356.9c16.3,0,28.5-2.9,36.2-8.8c7.6-5.7,12.9-15.7,15.7-29.6c2.6-13,1.6-22-2.9-26.9
	c-4.6-5-14.6-7.5-29.6-7.5h-26.1l-14.5,72.8H480z M394.7,446.5c-1.2,0-2.4-0.5-3.1-1.4c-0.8-0.9-1.1-2.1-0.9-3.3l38.3-193
	c0.4-1.9,2-3.2,4-3.2h82.6c26,0,45.3,6.9,57.4,20.5c12.2,13.7,16,32.8,11.2,56.8c-1.9,9.8-5.3,18.9-9.9,27
	c-4.7,8.1-10.8,15.7-18.3,22.4c-9,8.2-19.1,14.1-30.1,17.6c-10.8,3.5-24.7,5.2-41.3,5.2h-33.5l-9.6,48.1c-0.4,1.9-2,3.2-4,3.2
	L394.7,446.5L394.7,446.5z"/>
</svg>
