<svg width="582" height="434" viewBox="0 0 582 434" fill="none" xmlns="http://www.w3.org/2000/svg">
<path d="M195.359 36.2892L5.26688 111.092C2.35806 112.236 0.927884 115.522 2.07253 118.431L53.1102 248.131C54.2548 251.039 57.5408 252.47 60.4497 251.325L250.541 176.522C253.45 175.378 254.88 172.092 253.736 169.183L202.698 39.4835C201.553 36.5747 198.268 35.1446 195.359 36.2892Z" fill="white" stroke="black" stroke-width="2" stroke-linecap="round" stroke-linejoin="round"/>
<path d="M176.618 67.0895L39.9674 120.863C36.5293 122.215 34.8389 126.099 36.1918 129.538L36.1955 129.547C37.5484 132.985 41.4324 134.675 44.8705 133.323L181.521 79.5495C184.959 78.1966 186.65 74.3127 185.297 70.8745L185.293 70.8652C183.94 67.4271 180.056 65.7366 176.618 67.0895Z" fill="white" stroke="black" stroke-width="2" stroke-linecap="round" stroke-linejoin="round"/>
<path d="M81.3539 159.896L168.594 125.576" stroke="black" stroke-width="2" stroke-linecap="round" stroke-linejoin="round"/>
<path d="M65.3739 153.456L175.894 109.976" stroke="black" stroke-width="2" stroke-linecap="round" stroke-linejoin="round"/>
<path d="M81.2039 212.256C91.4598 212.256 99.7739 203.942 99.7739 193.686C99.7739 183.43 91.4598 175.116 81.2039 175.116C70.948 175.116 62.6339 183.43 62.6339 193.686C62.6339 203.942 70.948 212.256 81.2039 212.256Z" fill="white" stroke="black" stroke-width="2" stroke-linecap="round" stroke-linejoin="round"/>
<path d="M81.204 206.826C88.461 206.826 94.344 200.943 94.344 193.686C94.344 186.429 88.461 180.546 81.204 180.546C73.9469 180.546 68.064 186.429 68.064 193.686C68.064 200.943 73.9469 206.826 81.204 206.826Z" fill="white" stroke="black" stroke-width="2" stroke-linecap="round" stroke-linejoin="round"/>
<path d="M73.7839 210.726L80.3639 227.426L90.4439 217.336L104.814 217.816L98.2339 201.096" stroke="black" stroke-width="2" stroke-linecap="round" stroke-linejoin="round"/>
<path d="M220.004 146.247L168.535 166.5L176.631 187.074L228.1 166.821L220.004 146.247Z" fill="white" stroke="black" stroke-width="2" stroke-linecap="round" stroke-linejoin="round"/>
<path d="M232.004 365.706L179.824 327.656C179.824 327.656 200.244 295.526 209.514 280.866C218.784 266.206 238.834 238.186 243.574 234.516C248.314 230.856 289.704 221.796 292.944 220.716C296.174 219.636 300.704 218.456 300.704 218.456C300.704 218.456 320.944 256.096 356.674 254.206C386.154 252.636 393.994 217.766 393.994 217.766C393.994 217.766 446.644 225.996 456.554 232.896C466.474 239.796 508.934 305.326 510.874 308.996C512.814 312.666 518.374 326.246 518.374 326.246C518.374 326.246 510.134 334.976 505.404 338.416C500.674 341.856 470.314 363.586 470.314 363.586L466.624 363.996L453.574 350.446L448.994 419.156C448.994 419.156 399.504 434.446 339.824 433.986C337.274 433.966 334.814 433.926 332.434 433.856C295.844 432.856 264.024 408.496 253.114 373.556L246.274 351.646L231.994 365.716L232.004 365.706Z" fill="#0C6EFC"/>
<path d="M305.684 174.026L311.054 183.746L313.334 223.006C313.334 223.006 320.914 233.186 330.184 238.406C337.624 242.596 347.884 246.936 353.404 247.696C358.914 248.456 367.154 246.446 373.064 240.716C378.964 234.986 387.034 224.386 388.934 220.406C390.834 216.426 389.604 215.216 389.604 215.216C389.604 215.216 385.724 190.016 385.374 185.326C385.024 180.636 385.234 160.926 385.234 160.926L385.714 154.526C385.714 154.526 390.374 157.176 393.484 155.006C396.594 152.836 397.334 149.666 397.694 146.146C398.054 142.626 398.244 136.066 396.594 132.076C394.954 128.086 391.564 127.966 391.564 127.966L387.034 129.486C387.034 129.486 388.484 106.796 387.684 102.456C386.894 98.1157 384.164 87.5857 376.764 80.2057C369.374 72.8257 365.584 67.7157 365.584 67.7157C365.584 67.7157 347.214 52.7257 328.784 59.6057C310.354 66.4857 307.604 70.2858 304.174 71.6358C300.754 72.9858 296.524 74.1358 296.524 74.1358C296.524 74.1358 298.804 75.9157 300.264 76.2157C301.724 76.5157 297.924 79.7858 297.924 79.7858C297.924 79.7858 286.514 89.5957 284.114 94.1957C281.714 98.7957 281.404 103.976 281.974 107.146C282.544 110.316 286.594 125.236 287.784 128.666C288.974 132.096 293.954 148.836 293.954 148.836C293.954 148.836 289.004 150.116 288.074 152.176C287.144 154.246 287.594 160.036 289.654 166.346C291.714 172.656 296.784 176.786 299.234 177.186C301.684 177.586 305.704 174.016 305.704 174.016L305.684 174.026Z" fill="white" stroke="black" stroke-width="2" stroke-linecap="round" stroke-linejoin="round"/>
<path d="M181.484 330.006L173.804 341.926C173.804 341.926 171.254 321.986 167.344 308.576C163.434 295.166 155.664 274.106 161.254 252.876C166.844 231.646 175.014 219.686 176.474 208.006C177.934 196.336 178.244 172.696 178.234 168.316C178.224 163.936 177.564 149.306 174.314 149.296C171.064 149.296 167.414 150.406 166.844 154.556C166.274 158.706 166.024 169.196 165.654 173.856C165.284 178.516 163.154 189.116 163.154 189.116C163.154 189.116 158.764 180.066 156.094 179.296C153.424 178.526 149.454 179.346 148.504 179.776C147.554 180.216 145.774 179.496 143.124 181.396C140.474 183.296 136.454 188.676 136.454 188.676C136.454 188.676 131.064 189.586 129.704 192.486C128.344 195.396 121.114 211.336 120.924 214.386C120.734 217.436 120.874 232.176 120.924 238.936C120.974 245.696 122.734 258.146 122.984 263.546C123.234 268.946 123.194 287.856 121.914 302.146C120.634 316.426 118.754 336.846 119.224 346.166C119.694 355.486 122.564 377.986 126.134 391.626C129.704 405.256 131.264 415.836 135.024 420.446C138.784 425.056 140.704 429.156 146.034 428.566C151.364 427.976 160.124 424.286 168.734 417.986C177.354 411.686 195.504 398.846 197.904 396.876C200.304 394.906 211.854 384.306 214.684 380.776C217.514 377.246 224.244 366.766 224.244 366.766L225.784 362.226L181.494 329.996L181.484 330.006Z" fill="white" stroke="black" stroke-width="2" stroke-linecap="round" stroke-linejoin="round"/>
<path d="M518.334 328.996L526.014 340.916C526.014 340.916 528.564 320.976 532.474 307.566C536.384 294.156 544.154 273.096 538.564 251.866C532.974 230.636 524.804 218.676 523.344 206.996C521.884 195.326 521.574 171.686 521.584 167.306C521.594 162.926 522.254 148.296 525.504 148.286C528.754 148.276 532.404 149.396 532.974 153.546C533.544 157.706 533.794 168.186 534.164 172.846C534.534 177.506 536.664 188.106 536.664 188.106C536.664 188.106 541.054 179.056 543.724 178.286C546.394 177.516 550.364 178.336 551.314 178.766C552.264 179.206 554.044 178.486 556.694 180.386C559.344 182.286 563.364 187.666 563.364 187.666C563.364 187.666 568.754 188.576 570.114 191.476C571.474 194.386 578.704 210.326 578.894 213.376C579.084 216.426 578.944 231.166 578.894 237.926C578.844 244.686 577.084 257.136 576.834 262.536C576.584 267.936 576.624 286.846 577.904 301.136C579.184 315.416 581.064 335.836 580.594 345.156C580.124 354.476 577.254 376.976 573.684 390.616C570.114 404.246 568.554 414.826 564.794 419.436C561.034 424.046 559.114 428.146 553.784 427.556C548.454 426.966 539.694 423.276 531.084 416.976C522.464 410.676 504.314 397.836 501.914 395.866C499.514 393.896 487.964 383.296 485.134 379.766C482.304 376.236 475.574 365.756 475.574 365.756L474.034 361.216L518.324 328.986L518.334 328.996Z" fill="white" stroke="black" stroke-width="2" stroke-linecap="round" stroke-linejoin="round"/>
<path d="M293.824 150.106C291.834 150.076 289.654 150.406 288.304 151.866C286.604 153.706 286.824 156.576 287.364 159.026C288.304 163.286 289.854 167.416 291.964 171.236C293.544 174.106 295.944 177.096 299.224 177.186C301.214 177.246 303.094 176.156 304.514 174.766" stroke="black" stroke-width="2" stroke-linecap="round" stroke-linejoin="round"/>
<path d="M127.804 209.656L130.294 209.446" stroke="black" stroke-width="2" stroke-linecap="round" stroke-linejoin="round"/>
<path d="M128.714 214.146C129.754 213.146 130.794 212.146 131.824 211.146" stroke="black" stroke-width="2" stroke-linecap="round" stroke-linejoin="round"/>
<path d="M136.704 188.986C137.774 186.976 138.864 184.936 140.454 183.326C142.054 181.706 144.264 180.546 146.524 180.726C146.964 180.766 147.414 180.856 147.764 181.116C148.114 181.376 148.334 181.776 148.534 182.156C150.794 186.366 153.084 190.626 154.284 195.256C154.754 197.056 155.044 198.986 154.454 200.746C153.874 202.506 152.184 204.016 150.334 203.846C148.574 203.676 147.294 202.146 146.224 200.746C144.844 198.926 143.464 197.116 142.084 195.296" stroke="black" stroke-width="2" stroke-linecap="round" stroke-linejoin="round"/>
<path d="M147.534 180.226C150.244 178.936 153.564 177.676 156.084 179.306C157.144 179.996 157.854 181.086 158.514 182.166C161.634 187.276 164.234 192.696 166.274 198.316C166.864 199.956 167.414 201.616 167.604 203.346C168.104 208.016 165.934 212.606 166.044 217.306" stroke="black" stroke-width="2" stroke-linecap="round" stroke-linejoin="round"/>
<path d="M153.074 204.256C146.174 207.536 142.794 215.396 140.994 222.816C139.364 229.526 138.584 236.816 141.274 243.176" stroke="black" stroke-width="2" stroke-linecap="round" stroke-linejoin="round"/>
<path d="M225.774 363.696C215.154 386.306 193.314 401.176 172.464 414.926C167.804 418.006 163.134 421.076 158.474 424.156C155.234 426.296 151.774 428.506 147.894 428.666C143.054 428.876 138.564 425.736 135.814 421.736C133.074 417.736 131.764 412.966 130.494 408.286C125.654 390.386 120.794 372.346 119.544 353.846C117.714 326.736 123.714 299.656 123.294 272.486C122.994 252.546 119.234 232.626 121.024 212.776C121.024 212.776 126.194 200.226 128.864 194.116C129.204 193.346 129.544 192.576 130.064 191.916C131.474 190.146 133.884 189.576 136.104 189.116C138.124 190.696 139.314 193.106 140.264 195.496C142.514 201.156 143.834 207.186 144.154 213.266C144.244 215.036 144.034 217.186 142.444 217.956C141.274 218.526 139.864 218.046 138.754 217.366C134.174 214.576 132.234 209.036 130.624 203.916" stroke="black" stroke-width="2" stroke-linecap="round" stroke-linejoin="round"/>
<path d="M162.814 190.116C166.324 180.146 165.574 169.266 166.264 158.716C166.424 156.286 166.694 153.746 168.034 151.706C169.364 149.666 172.074 148.316 174.304 149.296C176.644 150.326 177.404 153.236 177.714 155.776C178.544 162.616 178.204 169.546 177.864 176.436C177.684 180.146 177.494 183.846 177.314 187.556C176.934 195.196 176.564 202.856 175.404 210.416C173.214 224.746 161.604 240.866 159.454 263.836C157.424 285.536 168.384 306.356 172.104 327.826C174.844 343.686 174.784 360.016 171.904 375.856" stroke="black" stroke-width="2" stroke-linecap="round" stroke-linejoin="round"/>
<path d="M173.804 342.086C176.884 338.716 179.474 334.916 181.484 330.816" stroke="black" stroke-width="2" stroke-linecap="round" stroke-linejoin="round"/>
<path d="M232.304 324.676C235.214 328.396 240.094 330.176 242.974 333.926C245.894 337.706 246.284 342.786 246.564 347.556C247.994 372.116 249.424 396.686 250.864 421.246" stroke="black" stroke-width="2" stroke-linecap="round" stroke-linejoin="round"/>
<path d="M312.724 209.536C292.344 214.496 271.984 219.546 251.644 224.676C247.684 225.676 243.644 226.706 240.234 228.946C236.284 231.536 233.484 235.516 230.794 239.396C220.824 253.816 210.944 268.296 201.164 282.846C192.044 296.416 182.924 310.196 177.284 325.546C193.984 339.546 211.444 352.646 229.544 364.786C230.284 365.286 231.114 365.806 232.004 365.706C232.914 365.616 233.624 364.906 234.254 364.246C238.264 360.046 242.274 355.836 246.274 351.636" stroke="black" stroke-width="2" stroke-linecap="round" stroke-linejoin="round"/>
<path d="M386.144 153.536C383.594 156.846 378.524 161.996 375.974 165.296C374.034 167.816 371.844 170.496 368.744 171.206C366.234 171.786 363.634 170.946 361.194 170.116C356.764 168.606 352.334 167.096 347.904 165.576C341.184 163.286 334.104 160.956 327.114 162.196C323.384 162.856 319.904 164.506 316.484 166.146C312.074 168.246 307.674 170.356 303.264 172.456" stroke="black" stroke-width="2" stroke-linecap="round" stroke-linejoin="round"/>
<path d="M295.604 109.946C296.944 105.906 299.784 102.386 303.454 100.226C307.124 98.0658 311.584 97.2958 315.764 98.0958" stroke="black" stroke-width="2" stroke-linecap="round" stroke-linejoin="round"/>
<path d="M338.964 93.5756C339.354 93.6156 339.724 93.4157 340.074 93.2357C346.284 89.9957 354.394 90.8457 359.804 95.2857" stroke="black" stroke-width="2" stroke-linecap="round" stroke-linejoin="round"/>
<path d="M287.774 128.676C284.914 121.216 282.874 113.446 281.714 105.546C281.384 103.306 281.124 100.996 281.714 98.8057C282.324 96.5057 283.794 94.5357 285.304 92.6957C289.924 87.0357 295.174 81.8757 300.904 77.3557" stroke="black" stroke-width="2" stroke-linecap="round" stroke-linejoin="round"/>
<path d="M296.524 74.1357C298.764 78.4457 306.474 78.2657 310.174 77.8257" stroke="black" stroke-width="2" stroke-linecap="round" stroke-linejoin="round"/>
<path d="M296.454 73.8557C303.684 73.2657 309.674 68.3257 315.974 64.7557C326.154 58.9857 338.444 56.5257 349.794 59.3357C361.154 62.1357 371.274 70.5857 374.814 81.7357C376.434 86.8457 376.724 94.8757 379.074 99.6957" stroke="black" stroke-width="2" stroke-linecap="round" stroke-linejoin="round"/>
<path d="M373.844 77.7557C380.934 83.0157 385.834 91.1357 387.204 99.8557C388.624 108.866 387.714 117.656 387.674 126.786" stroke="black" stroke-width="2" stroke-linecap="round" stroke-linejoin="round"/>
<path d="M314.934 141.906C319.694 136.616 327.404 134.166 334.344 135.756C337.334 136.436 340.154 137.806 343.184 138.296C344.344 138.486 345.554 138.536 346.654 138.136C347.484 137.836 348.214 137.286 348.884 136.706C350.774 135.096 352.404 133.186 353.704 131.066" stroke="black" stroke-width="2" stroke-linecap="round" stroke-linejoin="round"/>
<path d="M311.154 113.586C313.236 113.586 314.924 112.144 314.924 110.366C314.924 108.587 313.236 107.146 311.154 107.146C309.072 107.146 307.384 108.587 307.384 110.366C307.384 112.144 309.072 113.586 311.154 113.586Z" fill="black" stroke="black" stroke-width="2" stroke-linecap="round" stroke-linejoin="round"/>
<path d="M348.754 105.666C350.836 105.666 352.524 104.224 352.524 102.446C352.524 100.667 350.836 99.2257 348.754 99.2257C346.672 99.2257 344.984 100.667 344.984 102.446C344.984 104.224 346.672 105.666 348.754 105.666Z" fill="black" stroke="black" stroke-width="2" stroke-linecap="round" stroke-linejoin="round"/>
<path d="M327.084 99.4457C324.784 105.686 322.494 111.926 320.194 118.166C320.034 118.596 319.874 119.056 319.934 119.516C320.004 119.976 320.294 120.376 320.574 120.756C321.574 122.096 322.574 123.436 323.564 124.766" stroke="black" stroke-width="2" stroke-linecap="round" stroke-linejoin="round"/>
<path d="M320.844 118.836C327.384 116.726 334.984 118.276 340.174 122.786" stroke="black" stroke-width="2" stroke-linecap="round" stroke-linejoin="round"/>
<path d="M578.264 211.546C576.074 205.246 573.634 199.036 570.954 192.916C570.614 192.146 570.274 191.376 569.754 190.716C568.344 188.946 565.934 188.376 563.714 187.916C561.694 189.496 560.504 191.906 559.554 194.296C557.304 199.956 555.984 205.986 555.664 212.066C555.574 213.836 555.784 215.986 557.374 216.756C558.544 217.326 559.954 216.846 561.064 216.166C565.644 213.376 567.584 207.836 569.194 202.716" stroke="black" stroke-width="2" stroke-linecap="round" stroke-linejoin="round"/>
<path d="M572.044 208.456C571.214 208.386 570.384 208.316 569.554 208.246" stroke="black" stroke-width="2" stroke-linecap="round" stroke-linejoin="round"/>
<path d="M571.134 212.946C570.094 211.946 569.054 210.946 568.024 209.946" stroke="black" stroke-width="2" stroke-linecap="round" stroke-linejoin="round"/>
<path d="M563.144 187.786C562.074 185.776 560.984 183.736 559.394 182.126C557.794 180.506 555.584 179.346 553.324 179.526C552.884 179.566 552.434 179.656 552.084 179.916C551.734 180.176 551.514 180.576 551.314 180.956C549.054 185.166 546.764 189.426 545.564 194.056C545.094 195.856 544.804 197.786 545.394 199.546C545.984 201.306 547.664 202.816 549.514 202.646C551.274 202.476 552.554 200.946 553.624 199.546C555.004 197.726 556.384 195.916 557.764 194.096" stroke="black" stroke-width="2" stroke-linecap="round" stroke-linejoin="round"/>
<path d="M552.314 179.026C549.604 177.736 546.284 176.476 543.764 178.106C542.704 178.796 541.994 179.886 541.334 180.966C538.214 186.076 535.614 191.496 533.574 197.116C532.984 198.756 532.434 200.416 532.244 202.146C531.744 206.816 533.914 211.406 533.804 216.106" stroke="black" stroke-width="2" stroke-linecap="round" stroke-linejoin="round"/>
<path d="M546.784 203.056C553.684 206.336 557.064 214.196 558.864 221.616C560.494 228.326 561.274 235.616 558.584 241.976" stroke="black" stroke-width="2" stroke-linecap="round" stroke-linejoin="round"/>
<path d="M578.804 211.576C580.594 231.436 576.844 251.356 576.534 271.286C576.114 298.456 582.114 325.536 580.284 352.646C579.034 371.146 574.174 389.186 569.334 407.086C568.074 411.766 566.764 416.546 564.014 420.536C561.274 424.536 556.784 427.666 551.934 427.466C548.054 427.306 544.604 425.086 541.354 422.956C536.694 419.876 532.024 416.806 527.364 413.726C506.514 399.976 484.674 385.106 474.054 362.496" stroke="black" stroke-width="2" stroke-linecap="round" stroke-linejoin="round"/>
<path d="M537.034 188.916C533.524 178.946 534.274 168.066 533.584 157.516C533.424 155.086 533.154 152.546 531.814 150.506C530.484 148.466 527.774 147.116 525.544 148.096C523.204 149.126 522.444 152.036 522.134 154.576C521.304 161.416 521.644 168.346 521.984 175.236C522.164 178.946 522.354 182.646 522.534 186.356C522.914 193.996 523.284 201.656 524.444 209.216C526.634 223.546 538.244 239.666 540.394 262.636C542.424 284.336 531.464 305.156 527.744 326.626C525.004 342.486 525.064 358.816 527.944 374.656" stroke="black" stroke-width="2" stroke-linecap="round" stroke-linejoin="round"/>
<path d="M526.044 340.886C522.964 337.516 520.374 333.716 518.364 329.616" stroke="black" stroke-width="2" stroke-linecap="round" stroke-linejoin="round"/>
<path d="M467.544 323.476C464.634 327.196 459.754 328.976 456.874 332.726C453.954 336.506 453.564 341.586 453.284 346.356C451.854 370.916 450.424 395.486 448.984 420.046" stroke="black" stroke-width="2" stroke-linecap="round" stroke-linejoin="round"/>
<path d="M387.124 208.336C407.504 213.296 427.864 218.346 448.204 223.476C452.164 224.476 456.204 225.506 459.614 227.746C463.564 230.336 466.364 234.316 469.054 238.196C479.024 252.616 488.904 267.096 498.684 281.646C507.804 295.216 516.924 308.996 522.564 324.346C505.864 338.346 488.404 351.446 470.304 363.586C469.564 364.086 468.734 364.606 467.844 364.506C466.934 364.416 466.224 363.706 465.594 363.046C461.584 358.846 457.574 354.636 453.574 350.436" stroke="black" stroke-width="2" stroke-linecap="round" stroke-linejoin="round"/>
<path d="M313.404 224.216C313.404 224.216 311.354 185.206 311.054 183.746C310.764 182.276 305.184 172.896 302.844 172.306C300.504 171.716 294.924 151.776 290.524 137.696C286.124 123.616 285.534 110.716 288.764 103.086C291.994 95.4556 309.294 78.7457 313.404 75.5157C317.514 72.2857 334.264 70.5757 338.954 71.2257C346.784 72.3257 357.984 75.8056 366.194 84.3056C374.404 92.8156 382.914 103.666 384.674 110.116C386.434 116.566 387.024 129.476 387.024 129.476C387.024 129.476 389.954 127.716 392.304 128.596C394.654 129.476 398.464 135.636 398.174 140.626C397.884 145.616 397.294 153.536 393.484 154.996C389.674 156.466 387.034 155.586 386.154 153.526C385.274 151.476 384.684 174.056 384.984 179.626C385.274 185.196 386.744 201.036 387.624 206.026C388.504 211.016 390.264 217.756 390.264 217.756C390.264 217.756 377.064 247.086 356.244 247.676C335.424 248.266 313.424 224.216 313.424 224.216H313.404Z" stroke="black" stroke-width="2" stroke-linecap="round" stroke-linejoin="round"/>
<path d="M323.274 143.866C326.634 141.896 330.724 141.196 334.544 141.946" stroke="black" stroke-width="2" stroke-linecap="round" stroke-linejoin="round"/>
<path d="M304.504 172.456C304.504 172.456 327.384 203.726 340.914 203.896C354.444 204.066 379.944 160.136 379.944 160.136C379.944 160.136 374.544 171.806 365.014 171.196C355.484 170.586 340.954 160.616 332.234 161.866C323.514 163.126 308.774 169.816 308.774 169.816L304.504 172.446V172.456Z" fill="black" stroke="black" stroke-width="2" stroke-linecap="round" stroke-linejoin="round"/>
<path d="M446.254 28.1957L425.304 55.2357C422.114 59.3557 436.904 76.1658 458.344 92.7758C479.784 109.386 499.754 119.516 502.944 115.396L523.894 88.3557L446.254 28.1957Z" fill="white" stroke="black" stroke-width="2" stroke-linecap="round" stroke-linejoin="round"/>
<path d="M554.444 98.2157L511.654 29.6857C510.374 27.6457 508.414 26.1158 506.114 25.3958L429.064 1.08572C427.504 0.595716 426.184 2.3057 427.044 3.6957L469.724 72.3457C471.004 74.4057 472.984 75.9358 475.294 76.6658L552.434 100.836C553.994 101.326 555.314 99.6057 554.454 98.2257L554.444 98.2157Z" fill="white" stroke="black" stroke-width="2" stroke-linecap="round" stroke-linejoin="round"/>
<path d="M486.874 32.0757C486.874 32.0757 502.394 64.0557 496.684 72.0157C490.974 79.9757 453.894 114.226 458.924 131.036" stroke="black" stroke-width="2" stroke-linecap="round" stroke-linejoin="round"/>
<path d="M458.434 126.656L456.714 147.286L466.164 145.856L458.434 126.656Z" fill="black" stroke="black" stroke-width="2" stroke-linecap="round" stroke-linejoin="round"/>
</svg>
