<svg width="1440" height="110" viewBox="0 0 1440 110" fill="none" xmlns="http://www.w3.org/2000/svg">
<path d="M98.9888 49.9283L100.292 47.052L93.1068 43.796L93.938 41.9616L104.042 33.3787L106.234 34.3723L96.1306 42.9551L101.123 45.2176L103.115 40.8218L105.069 41.7071L103.077 46.103L104.705 46.8407L103.874 48.675L102.246 47.9373L100.943 50.8136L98.9888 49.9283Z" fill="white" fill-opacity="0.1"/>
<path d="M86.1423 44.107L92.2559 30.6154L88.5078 31.0626L89.4866 28.9026L93.2248 28.4772L95.1894 29.3674L88.1069 44.9972L86.1423 44.107Z" fill="white" fill-opacity="0.1"/>
<path d="M78.6642 43.649L79.1918 42.8022C79.4859 42.9616 79.7401 43.007 79.9543 42.9384C80.1686 42.8697 80.3515 42.7259 80.5031 42.5068C80.6548 42.2876 80.7817 42.0268 80.8839 41.7243L79.7659 41.2177L80.8775 38.7646L83.0049 39.7287L81.7458 42.5073C81.4015 43.2671 80.9543 43.7535 80.4042 43.9665C79.8614 44.1827 79.2814 44.0769 78.6642 43.649Z" fill="white" fill-opacity="0.1"/>
<path d="M71.9232 38.0295C71.149 37.6787 70.4929 37.2113 69.9551 36.6274C69.4205 36.0363 69.0289 35.3704 68.7802 34.6297C68.542 33.8851 68.4746 33.1002 68.5782 32.2749L70.6753 32.5841C70.5862 33.4159 70.7349 34.1462 71.1216 34.775C71.5083 35.4037 72.0506 35.8719 72.7485 36.1794C73.3918 36.4535 74.0074 36.558 74.5951 36.4928C75.1933 36.4238 75.7289 36.2042 76.2018 35.8342C76.682 35.4674 77.0664 34.9656 77.3549 34.3289C77.7943 33.3592 77.8606 32.443 77.5539 31.5801C77.2505 30.7099 76.6284 30.0617 75.6877 29.6354C75.4272 29.5174 75.1358 29.429 74.8136 29.3702C74.4986 29.3147 74.1886 29.2963 73.8836 29.315L73.6436 27.3616L81.8153 24.7456L81.7698 25.51L73.9875 21.9834L74.8236 20.1383L84.0387 24.314L83.1976 26.1701L76.1146 28.6645L76.4027 27.9709C77.4703 28.3674 78.2977 28.9473 78.8851 29.7106C79.4724 30.4739 79.8058 31.3358 79.8851 32.2963C79.9717 33.26 79.7904 34.2376 79.3412 35.2289C78.8887 36.2275 78.2644 37.0086 77.4682 37.5724C76.672 38.1361 75.7903 38.4649 74.8233 38.5587C73.8595 38.6453 72.8929 38.4689 71.9232 38.0295Z" fill="white" fill-opacity="0.1"/>
<path d="M1061.6 17.2164L1061.01 15.1021L1055.73 16.5606L1055.36 15.2122L1056.93 6.13904L1058.54 5.69399L1056.97 14.7671L1060.64 13.7537L1059.75 10.5223L1061.18 10.1257L1062.08 13.3571L1063.27 13.0266L1063.65 14.375L1062.45 14.7055L1063.03 16.8199L1061.6 17.2164Z" fill="white" fill-opacity="0.2"/>
<path d="M1052.15 19.824L1049.42 9.90639L1047.62 11.812L1047.18 10.2242L1048.98 8.33458L1050.43 7.9358L1053.6 19.4252L1052.15 19.824Z" fill="white" fill-opacity="0.2"/>
<path d="M1047.96 22.9054L1047.87 22.2189C1048.09 22.1732 1048.25 22.0844 1048.33 21.9524C1048.42 21.8205 1048.45 21.6624 1048.43 21.4781C1048.42 21.2937 1048.37 21.0981 1048.29 20.8912L1047.47 21.1181L1046.97 19.3149L1048.53 18.8831L1049.1 20.9257C1049.25 21.4842 1049.23 21.9426 1049.03 22.3009C1048.84 22.6577 1048.48 22.8592 1047.96 22.9054Z" fill="white" fill-opacity="0.2"/>
<path d="M1041.86 22.9059C1041.3 23.0631 1040.74 23.1055 1040.19 23.0332C1039.64 22.9555 1039.14 22.7744 1038.68 22.4899C1038.22 22.1985 1037.83 21.8096 1037.52 21.3232L1038.78 20.5555C1039.1 21.039 1039.5 21.3625 1039.99 21.526C1040.48 21.6895 1040.97 21.698 1041.48 21.5517C1041.95 21.4118 1042.32 21.1938 1042.61 20.8977C1042.9 20.5948 1043.08 20.2394 1043.17 19.8316C1043.26 19.4224 1043.25 18.9837 1043.12 18.5156C1042.92 17.8028 1042.55 17.2845 1042 16.9605C1041.45 16.6312 1040.83 16.562 1040.14 16.7529C1039.95 16.8058 1039.75 16.8882 1039.56 17.0002C1039.36 17.1106 1039.19 17.2387 1039.04 17.3844L1038.04 16.4489L1041.23 11.4186L1041.55 11.8467L1035.83 13.4264L1035.46 12.07L1042.23 10.1995L1042.61 11.5638L1039.94 16.045L1039.78 15.5468C1040.53 15.2835 1041.23 15.2249 1041.88 15.371C1042.53 15.517 1043.09 15.8286 1043.56 16.3058C1044.04 16.7815 1044.38 17.3837 1044.58 18.1124C1044.78 18.8465 1044.79 19.5409 1044.62 20.1958C1044.45 20.8507 1044.12 21.4183 1043.65 21.8984C1043.17 22.3733 1042.58 22.7091 1041.86 22.9059Z" fill="white" fill-opacity="0.2"/>
<path d="M140.687 87.9175L140.903 85.7962L135.604 85.2572L135.742 83.9044L140.363 76.2383L141.98 76.4028L137.359 84.0689L141.041 84.4434L141.371 81.2015L142.811 81.3481L142.482 84.59L143.682 84.7121L143.545 86.0649L142.344 85.9428L142.128 88.0641L140.687 87.9175Z" fill="white" fill-opacity="0.1"/>
<path d="M131.213 86.9539L132.225 77.0039L129.923 78.096L130.085 76.5031L132.386 75.427L133.835 75.5743L132.662 87.1013L131.213 86.9539Z" fill="white" fill-opacity="0.1"/>
<path d="M126.329 88.2684L126.484 87.613C126.707 87.6518 126.879 87.6262 127.002 87.5362C127.124 87.4462 127.21 87.3148 127.26 87.1419C127.31 86.9691 127.335 86.7748 127.336 86.5592L126.511 86.4753L126.695 84.6663L128.264 84.8259L128.056 86.8751C127.999 87.4354 127.817 87.8429 127.511 88.0975C127.21 88.3526 126.816 88.4096 126.329 88.2684Z" fill="white" fill-opacity="0.1"/>
<path d="M120.805 86.1215C120.234 86.0634 119.714 85.9054 119.244 85.6473C118.775 85.3839 118.381 85.0419 118.062 84.6213C117.75 84.1959 117.538 83.708 117.427 83.1575L118.835 82.9045C118.957 83.4561 119.21 83.8915 119.592 84.2108C119.975 84.5301 120.423 84.7131 120.936 84.7599C121.406 84.797 121.823 84.7315 122.185 84.5635C122.553 84.3906 122.848 84.1349 123.072 83.7964C123.3 83.4584 123.438 83.0546 123.486 82.585C123.559 81.8699 123.404 81.2691 123.022 80.7828C122.641 80.2911 122.103 80.01 121.41 79.9394C121.218 79.9198 121.012 79.9259 120.793 79.9575C120.58 79.9897 120.377 80.0446 120.186 80.1222L119.612 78.9235L124.28 75.492L124.416 75.9911L118.676 75.4072L118.815 74.0464L125.611 74.7377L125.471 76.1065L121.474 79.2261L121.509 78.7202C122.278 78.7445 122.932 78.9377 123.472 79.3C124.012 79.6623 124.411 80.1423 124.668 80.74C124.931 81.3382 125.025 82.0029 124.951 82.734C124.876 83.4704 124.644 84.1046 124.256 84.6367C123.868 85.1687 123.374 85.5687 122.775 85.8367C122.177 86.0993 121.52 86.1943 120.805 86.1215Z" fill="white" fill-opacity="0.1"/>
<path d="M301.302 49.3464L298.974 45.7677L290.034 51.5857L288.549 49.3035L286.122 31.5438L288.85 29.7685L291.276 47.5282L297.488 43.4855L293.929 38.0164L296.36 36.4344L299.919 41.9036L301.945 40.5854L303.43 42.8676L301.404 44.1858L303.733 47.7644L301.302 49.3464Z" fill="white" fill-opacity="0.2"/>
<path d="M285.319 59.7482L274.395 42.9625L272.177 47.5588L270.428 44.8715L272.664 40.3022L275.108 38.7115L287.764 58.1575L285.319 59.7482Z" fill="white" fill-opacity="0.2"/>
<path d="M279.355 67.9355L278.775 66.718C279.17 66.4989 279.407 66.2424 279.485 65.9483C279.562 65.6542 279.532 65.341 279.392 65.0088C279.253 64.6765 279.048 64.3421 278.778 64.0054L277.387 64.9106L275.401 61.8586L278.047 60.1361L280.297 63.5932C280.912 64.5385 281.141 65.402 280.984 66.1838C280.835 66.9598 280.292 67.5437 279.355 67.9355Z" fill="white" fill-opacity="0.2"/>
<path d="M268.046 71.5275C267.082 72.1545 266.072 72.5619 265.016 72.7498C263.953 72.9287 262.909 72.8903 261.884 72.6347C260.862 72.3641 259.919 71.8696 259.054 71.1509L260.932 68.9864C261.815 69.6933 262.756 70.0553 263.754 70.0723C264.752 70.0893 265.68 69.8121 266.538 69.2406C267.319 68.707 267.886 68.0817 268.239 67.3646C268.596 66.6327 268.736 65.8626 268.658 65.0543C268.59 64.2402 268.298 63.4371 267.782 62.6448C266.997 61.4385 266.001 60.696 264.795 60.4175C263.582 60.13 262.391 60.367 261.221 61.1287C260.896 61.3396 260.584 61.6073 260.282 61.9317C259.99 62.2502 259.743 62.5901 259.542 62.9513L257.142 61.803L260.108 50.5875L260.946 51.1956L251.264 57.4969L249.77 55.2012L261.235 47.7399L262.738 50.0491L260.425 59.9356L259.844 59.1024C261.073 58.1746 262.336 57.6538 263.633 57.54C264.931 57.4263 266.155 57.6737 267.308 58.2823C268.469 58.8851 269.451 59.8032 270.253 61.0365C271.062 62.2789 271.498 63.5589 271.56 64.8764C271.623 66.194 271.356 67.4379 270.759 68.6081C270.157 69.7693 269.252 70.7425 268.046 71.5275Z" fill="white" fill-opacity="0.2"/>
<path d="M995.989 84.0701L997.292 81.1938L990.107 77.9378L990.938 76.1035L1001.04 67.5206L1003.23 68.5141L993.13 77.097L998.123 79.3595L1000.12 74.9636L1002.07 75.8489L1000.08 80.2448L1001.71 80.9826L1000.87 82.8169L999.246 82.0791L997.942 84.9554L995.989 84.0701Z" fill="white" fill-opacity="0.3"/>
<path d="M983.142 78.2488L989.256 64.7573L985.508 65.2044L986.487 63.0445L990.225 62.619L992.189 63.5093L985.107 79.1391L983.142 78.2488Z" fill="white" fill-opacity="0.3"/>
<path d="M975.664 77.791L976.192 76.9443C976.486 77.1037 976.74 77.1491 976.954 77.0805C977.168 77.0118 977.351 76.868 977.503 76.6489C977.655 76.4297 977.782 76.1689 977.884 75.8663L976.766 75.3597L977.877 72.9067L980.005 73.8708L978.746 76.6494C978.401 77.4092 977.954 77.8956 977.404 78.1086C976.861 78.3248 976.281 78.219 975.664 77.791Z" fill="white" fill-opacity="0.3"/>
<path d="M968.923 72.1716C968.149 71.8207 967.493 71.3534 966.955 70.7695C966.42 70.1784 966.029 69.5125 965.78 68.7718C965.542 68.0272 965.475 67.2422 965.578 66.417L967.675 66.7262C967.586 67.558 967.735 68.2883 968.122 68.917C968.508 69.5458 969.05 70.0139 969.748 70.3215C970.392 70.5956 971.007 70.7 971.595 70.6349C972.193 70.5659 972.729 70.3463 973.202 69.9763C973.682 69.6095 974.066 69.1077 974.355 68.4709C974.794 67.5013 974.861 66.5851 974.554 65.7221C974.25 64.852 973.628 64.2038 972.688 63.7775C972.427 63.6595 972.136 63.5711 971.814 63.5123C971.499 63.4568 971.189 63.4384 970.883 63.4571L970.644 61.5037L978.815 58.8877L978.77 59.6521L970.987 56.1255L971.824 54.2804L981.039 58.4561L980.198 60.3121L973.115 62.8066L973.403 62.113C974.47 62.5095 975.298 63.0894 975.885 63.8527C976.472 64.616 976.806 65.4779 976.885 66.4384C976.972 67.4021 976.79 68.3797 976.341 69.371C975.889 70.3696 975.264 71.1507 974.468 71.7145C973.672 72.2782 972.79 72.607 971.823 72.7008C970.859 72.7874 969.893 72.611 968.923 72.1716Z" fill="white" fill-opacity="0.3"/>
<path d="M1134.86 63.2341L1132.27 59.1096L1121.96 65.5763L1120.31 62.9459L1117.88 42.6483L1121.02 40.6751L1123.46 60.9727L1130.62 56.4792L1126.66 50.1757L1129.46 48.4174L1133.42 54.7209L1135.75 53.2556L1137.4 55.8859L1135.07 57.3512L1137.66 61.4757L1134.86 63.2341Z" fill="white" fill-opacity="0.1"/>
<path d="M1116.44 74.796L1104.29 55.4497L1101.68 60.6494L1099.73 57.5522L1102.37 52.3835L1105.19 50.6154L1119.25 73.0279L1116.44 74.796Z" fill="white" fill-opacity="0.1"/>
<path d="M1109.48 84.0203L1108.84 82.621C1109.3 82.3786 1109.57 82.0904 1109.67 81.7565C1109.76 81.4226 1109.73 81.0649 1109.58 80.6834C1109.43 80.302 1109.2 79.9167 1108.9 79.5277L1107.29 80.5339L1105.08 77.0164L1108.14 75.1017L1110.64 79.0862C1111.32 80.1757 1111.56 81.1647 1111.37 82.0533C1111.19 82.9353 1110.56 83.591 1109.48 84.0203Z" fill="white" fill-opacity="0.1"/>
<path d="M1096.52 87.9041C1095.41 88.6009 1094.25 89.0466 1093.04 89.241C1091.82 89.4251 1090.63 89.3618 1089.47 89.051C1088.31 88.7234 1087.24 88.1417 1086.27 87.306L1088.45 84.8729C1089.45 85.6956 1090.51 86.126 1091.65 86.1641C1092.79 86.2022 1093.85 85.9035 1094.84 85.268C1095.74 84.6741 1096.4 83.9717 1096.82 83.1606C1097.24 82.3326 1097.41 81.4571 1097.34 80.5339C1097.27 79.6043 1096.96 78.6829 1096.38 77.7698C1095.51 76.3794 1094.39 75.5141 1093.02 75.1738C1091.64 74.8232 1090.28 75.0712 1088.93 75.9178C1088.55 76.1523 1088.19 76.4516 1087.84 76.8159C1087.5 77.1736 1087.22 77.5566 1086.98 77.9648L1084.26 76.6103L1087.86 63.8764L1088.8 64.5856L1077.64 71.5896L1075.98 68.9437L1089.2 60.6502L1090.87 63.3117L1088.04 74.5424L1087.4 73.5814C1088.82 72.5463 1090.27 71.9761 1091.75 71.8708C1093.23 71.7654 1094.62 72.0705 1095.92 72.7862C1097.24 73.4953 1098.34 74.5606 1099.23 75.9822C1100.13 77.4141 1100.6 78.8818 1100.65 80.3855C1100.7 81.8891 1100.37 83.3026 1099.67 84.6258C1098.96 85.9387 1097.91 87.0315 1096.52 87.9041Z" fill="white" fill-opacity="0.1"/>
<path d="M38.7376 80.0808L38.0648 78.8139L34.9001 80.4948L34.471 79.6869L34.1875 73.6716L35.1531 73.1588L35.4367 79.174L37.6357 78.006L36.6074 76.0699L37.4679 75.6129L38.4962 77.549L39.2133 77.1682L39.6424 77.9761L38.9253 78.3569L39.5981 79.6237L38.7376 80.0808Z" fill="white" fill-opacity="0.3"/>
<path d="M33.0797 83.0857L29.9237 77.1436L29.0446 78.6157L28.5393 77.6643L29.4235 76.2018L30.2888 75.7423L33.945 82.6262L33.0797 83.0857Z" fill="white" fill-opacity="0.3"/>
<path d="M30.8407 85.6481L30.6826 85.2233C30.8215 85.1618 30.9083 85.083 30.9431 84.9869C30.9779 84.8908 30.9769 84.7851 30.9402 84.6698C30.9034 84.5544 30.8448 84.4364 30.7644 84.3157L30.272 84.5772L29.6982 83.4968L30.6351 82.9992L31.2851 84.223C31.4629 84.5576 31.5137 84.8534 31.4377 85.1103C31.3649 85.3656 31.1659 85.5448 30.8407 85.6481Z" fill="white" fill-opacity="0.3"/>
<path d="M26.9489 86.5139C26.6079 86.695 26.2578 86.8013 25.8986 86.8327C25.5376 86.861 25.1895 86.8171 24.8541 86.701C24.5202 86.5801 24.2192 86.3865 23.9511 86.1203L24.6442 85.4518C24.9186 85.7147 25.2225 85.8638 25.556 85.8992C25.8894 85.9346 26.2082 85.8694 26.5125 85.7037C26.7896 85.5484 26.9979 85.356 27.1376 85.1266C27.2787 84.8923 27.3483 84.6387 27.3465 84.366C27.3478 84.0915 27.274 83.814 27.125 83.5336C26.8982 83.1065 26.5871 82.8284 26.1916 82.6993C25.7945 82.567 25.3887 82.6109 24.9744 82.831C24.8597 82.8919 24.7471 82.9721 24.6365 83.0717C24.5291 83.1696 24.4365 83.276 24.3586 83.3909L23.5895 82.9352L24.9159 79.2704L25.1782 79.4988L21.7506 81.3193L21.319 80.5066L25.3776 78.351L25.8118 79.1685L24.7437 82.408L24.5742 82.1119C25.013 81.838 25.4511 81.7013 25.8886 81.7019C26.3261 81.7024 26.7286 81.8217 27.096 82.0596C27.4667 82.2959 27.768 82.6323 27.9999 83.0689C28.2334 83.5087 28.3412 83.95 28.323 84.3928C28.3048 84.8356 28.1784 85.2439 27.9439 85.6177C27.7076 85.9883 27.376 86.2871 26.9489 86.5139Z" fill="white" fill-opacity="0.3"/>
</svg>
