<svg width="93" height="93" viewBox="0 0 93 93" fill="none" xmlns="http://www.w3.org/2000/svg">
<path d="M7.61559 42.3023C7.15405 42.3023 6.57712 42.186 6.11559 42.0698C3.57712 41.2558 2.19251 38.3488 3.0002 35.7907C6.0002 26.2558 15.231 18.4651 26.654 15.5581C36.1156 13.1163 45.8079 13.9302 55.731 15.093L56.7694 15.2093C65.654 16.2558 73.8464 17.186 81.8079 15.6744C84.4617 15.2093 87.0002 16.9535 87.5771 19.6279C88.0387 22.3023 86.3079 24.8605 83.654 25.4418C74.3079 27.186 64.8464 26.1395 55.8464 25.2093L54.8079 25.093C45.3464 23.9302 36.9233 23.2325 29.0771 25.2093C22.6156 26.8372 14.7694 31.3721 12.231 38.9302C11.5387 41.0232 9.57712 42.3023 7.61559 42.3023Z" fill="#398896"/>
<path d="M18.8079 81.6046L19.0387 81.372L19.2694 81.0232L19.8464 80.2092C20.1925 79.6278 20.6541 79.1627 21.0002 78.5813C21.6925 77.4185 22.5002 76.372 23.1925 75.093C24.5771 72.7674 25.9617 70.3255 27.1156 67.8837C29.5387 62.8837 31.6156 57.7674 33.231 52.5348C34.0387 49.8604 34.731 47.186 35.3079 44.5116C35.8848 41.8372 36.3464 39.0465 36.6925 36.372C37.3848 30.9069 37.5002 25.3255 37.1541 19.7441V19.6279C37.0387 16.9534 39.1156 14.5116 41.7694 14.3953C44.4233 14.279 46.6156 16.1395 46.9617 18.8139C47.6541 24.9767 47.8848 31.1395 47.4233 37.4186C47.1925 40.5581 46.8464 43.5813 46.3848 46.6046C45.9233 49.6279 45.3464 52.6511 44.5387 55.6744C43.0387 61.7209 41.0771 67.5348 38.6541 73.2325C37.3848 76.1395 36.1156 78.9302 34.6156 81.6046C33.9233 82.9999 33.1156 84.3953 32.3079 85.6744C31.9617 86.372 31.5002 87.0697 31.0387 87.7674L30.3464 88.8139L30.0002 89.3953L29.5387 89.9767C27.3464 93.1162 23.0771 93.9302 19.9617 91.7209C16.8464 89.5116 16.0387 85.2092 18.231 82.0697C18.5771 81.9534 18.6925 81.7209 18.8079 81.6046Z" fill="#398896"/>
<path d="M73.9617 92.8836C70.731 92.8836 67.6156 91.9534 64.8464 90.2092C53.654 82.9999 53.8848 66.9534 54.1156 58.2324C54.3464 45.9069 55.5002 33.3487 57.3464 21.9534C57.8079 19.279 60.3464 17.4185 63.0002 17.8836C65.654 18.3487 67.5002 20.9069 67.0387 23.5813C65.1925 34.5115 64.154 46.4883 63.9233 58.465C63.8079 65.2092 63.5771 77.6511 70.154 81.8371C72.3464 83.2324 74.7694 82.9999 76.3848 82.5348C79.3848 81.7208 82.2694 79.279 83.5387 76.6045C84.6925 74.1627 87.6925 73.1162 90.1156 74.279C92.5387 75.4417 93.5771 78.465 92.4233 80.9069C89.8848 86.2557 84.8079 90.4417 79.0387 92.0697C77.4233 92.6511 75.6925 92.8836 73.9617 92.8836Z" fill="#398896"/>
<path d="M4.73097 40.0931C4.26943 40.0931 3.69251 39.9768 3.23097 39.8605C0.807896 39.0465 -0.57672 36.3721 0.230973 33.9303C3.23097 24.6279 12.0002 17.3024 22.9617 14.5117C32.0771 12.1861 41.3079 13 50.7694 14.0465L51.8079 14.1628C60.231 15.0931 68.0771 15.907 75.6925 14.5117C78.231 14.0465 80.6541 15.6744 81.1156 18.2326C81.5771 20.7907 79.9617 23.2326 77.4233 23.6977C68.4233 25.4419 59.5387 24.3954 50.8848 23.4651H49.8464C40.8464 22.4186 32.8848 21.8372 25.2694 23.6977C19.0387 25.2093 11.5387 29.5117 9.11559 36.8372C8.53866 38.814 6.69251 40.0931 4.73097 40.0931Z" fill="#C1F5FF"/>
<path d="M15.4617 77.535L15.6925 77.3024L15.9233 76.9536L16.5002 76.2559C16.8464 75.7908 17.1925 75.2094 17.5387 74.7443C18.231 73.6978 18.9233 72.535 19.6156 71.4885C21.0002 69.2792 22.2694 66.9536 23.4233 64.628C25.731 59.8606 27.6925 54.9769 29.3079 49.9769C30.1156 47.4187 30.6925 44.8606 31.2694 42.3024C31.8464 39.7443 32.3079 37.0699 32.5387 34.5117C33.231 29.2792 33.3464 23.9304 33.0002 18.6978C32.8848 16.1397 34.8464 13.8141 37.3848 13.6978C39.9233 13.5815 42.0002 15.442 42.3464 17.8838C43.0387 23.6978 43.1541 29.7443 42.8079 35.5583C42.5771 38.4652 42.231 41.4885 41.7694 44.3955C41.3079 47.3024 40.731 50.2094 40.0387 53.1164C38.6541 58.8141 36.6925 64.5117 34.3848 69.9769C33.231 72.6513 31.9617 75.442 30.5771 78.0001C29.8848 79.2792 29.1925 80.6745 28.3848 81.9536C28.0387 82.6513 27.5771 83.2327 27.231 83.9304L26.5387 84.8606L26.1925 85.3257L25.8464 85.9071C23.7694 88.9304 19.6156 89.628 16.6156 87.535C13.6156 85.442 12.9233 81.2559 15.0002 78.2327C15.231 77.8838 15.3464 77.6513 15.4617 77.535Z" fill="#C1F5FF"/>
<path d="M68.1925 88.349C65.0771 88.349 62.0771 87.535 59.5387 85.7908C48.8079 78.8141 49.1541 63.4653 49.2694 55.3257C49.5002 43.4653 50.5387 31.4885 52.3848 20.6746C52.8464 18.1164 55.2694 16.3722 57.8079 16.8374C60.3464 17.3025 62.0771 19.7443 61.6156 22.3025C59.8848 32.7676 58.8464 44.2792 58.6156 55.5583C58.5002 61.9536 58.2694 73.8141 64.6156 77.8839C66.8079 79.2792 69.0002 79.0467 70.6156 78.5815C73.5002 77.7676 76.2694 75.5583 77.5387 72.8839C78.6925 70.5583 81.4617 69.5118 83.7694 70.6746C86.0771 71.8374 87.1156 74.6281 85.9617 76.9536C83.5387 82.0699 78.6925 86.0234 73.1541 87.6513C71.4233 88.1164 69.8079 88.349 68.1925 88.349Z" fill="#C1F5FF"/>
<circle cx="39.5685" cy="9.56852" r="9.42938" transform="rotate(0.851865 39.5685 9.56852)" fill="white"/>
<circle cx="39.5684" cy="9.56858" r="4.40038" transform="rotate(0.851865 39.5684 9.56858)" fill="black"/>
<circle cx="42.1196" cy="7.09144" r="1.88588" transform="rotate(0.851865 42.1196 7.09144)" fill="white"/>
<circle cx="56.5685" cy="9.56852" r="9.42938" transform="rotate(0.851865 56.5685 9.56852)" fill="white"/>
<circle cx="56.5675" cy="9.56834" r="4.40038" transform="rotate(0.851865 56.5675 9.56834)" fill="black"/>
<circle cx="59.1196" cy="7.09144" r="1.88588" transform="rotate(0.851865 59.1196 7.09144)" fill="white"/>
</svg>
